<svg xmlns="http://www.w3.org/2000/svg" width="85.767" height="121.98" viewBox="0 0 85.767 121.98">
  <g id="Group_176" data-name="Group 176" transform="translate(-3370.771 -539.707)">
    <path id="Path_102" data-name="Path 102" d="M118.884,121.98A42.891,42.891,0,0,1,82.4,56.546L116.443,1.689A3.574,3.574,0,0,1,119.479,0h.028a3.573,3.573,0,0,1,3.038,1.737l33.174,55.388a42.893,42.893,0,0,1-36.835,64.854Zm30.7-61.185-30.16-50.357L88.476,60.312a35.76,35.76,0,1,0,61.109.483Z" transform="translate(3294.771 539.707)" fill="#ee3c40"/>
    <path id="Path_103" data-name="Path 103" d="M3384.516,839.09s9.331-5.662,6.624-18.86" transform="translate(48.593 -203)" fill="none" stroke="#ee3c40" stroke-linecap="round" stroke-width="6"/>
  </g>
</svg>
