<svg id="calendar" xmlns="http://www.w3.org/2000/svg" width="512" height="512" viewBox="0 0 512 512">
  <path id="Path_101" data-name="Path 101" d="M446,40H400V16a16,16,0,0,0-32,0V40H144V16a16,16,0,0,0-32,0V40H66A66.074,66.074,0,0,0,0,106V446a66.074,66.074,0,0,0,66,66H446a66.074,66.074,0,0,0,66-66V106A66.074,66.074,0,0,0,446,40ZM66,72h46V88a16,16,0,0,0,32,0V72H368V88a16,16,0,0,0,32,0V72h46a34.038,34.038,0,0,1,34,34v38H32V106A34.038,34.038,0,0,1,66,72ZM446,480H66a34.038,34.038,0,0,1-34-34V176H480V446A34.038,34.038,0,0,1,446,480Z" fill="#f3777a"/>
</svg>
