<svg width="24" height="24" viewBox="0 0 24 24" fill="none" xmlns="http://www.w3.org/2000/svg">
<path fill-rule="evenodd" clip-rule="evenodd" d="M18.5504 5.43248C18.7893 5.12849 18.7365 4.68843 18.4325 4.44958C18.1285 4.21073 17.6884 4.26354 17.4496 4.56753L6.44958 18.5675C6.21073 18.8715 6.26353 19.3116 6.56752 19.5504C6.87152 19.7893 7.31157 19.7365 7.55042 19.4325L8.62922 18.0595C9.61239 18.4543 10.7331 18.7 12 18.7C17.5237 18.7 20.2696 14.0288 20.9469 12.6914C21.1681 12.2547 21.1681 11.7453 20.9469 11.3086C20.5386 10.5024 19.3786 8.48477 17.3116 7.00918L18.5504 5.43248ZM16.4443 8.11297L14.5859 10.4782C14.849 10.9244 15 11.4446 15 12C15 13.6569 13.6568 15 12 15C11.6985 15 11.4075 14.9555 11.133 14.8728L9.53993 16.9004C10.2773 17.1506 11.096 17.3 12 17.3C16.6487 17.3 19.045 13.348 19.698 12.0588C19.7178 12.0198 19.7178 11.9802 19.698 11.9412C19.2999 11.1552 18.2538 9.37946 16.4443 8.11297ZM11.8247 13.9924C11.8825 13.9974 11.9409 14 12 14C13.1045 14 14 13.1046 14 12C14 11.7754 13.9629 11.5595 13.8947 11.358L11.8247 13.9924Z" fill="#060F33"/>
<path d="M14.6695 5.69267C15.1223 5.83153 15.2634 6.38108 14.9707 6.75355C14.7776 6.99928 14.4491 7.08903 14.149 7.00164C13.4943 6.81092 12.7787 6.70001 12 6.70001C7.35127 6.70001 4.95491 10.652 4.30192 11.9412C4.28214 11.9802 4.28214 12.0198 4.30192 12.0588C4.66562 12.7769 5.57017 14.321 7.10352 15.5483C7.42053 15.802 7.49663 16.266 7.24577 16.5853C7.01888 16.874 6.60492 16.9388 6.31609 16.712C4.48104 15.2709 3.43612 13.4479 3.05299 12.6914C2.83178 12.2547 2.83178 11.7453 3.05299 11.3086C3.73036 9.97124 6.47622 5.30001 12 5.30001C12.9751 5.30001 13.8636 5.44557 14.6695 5.69267Z" fill="#060F33"/>
<path d="M12.3345 9.01845C12.7004 9.05904 12.8237 9.48602 12.5963 9.77551C12.4697 9.93658 12.2634 10.0067 12.0586 10.0008C12.0391 10.0003 12.0196 10 12 10C10.8954 10 9.99996 10.8954 9.99996 12C9.99996 12.1834 10.0247 12.3611 10.0709 12.5298C10.1251 12.7276 10.1061 12.9449 9.97938 13.1061C9.75219 13.3953 9.30842 13.3768 9.18199 13.0315C9.06423 12.7098 8.99996 12.3624 8.99996 12C8.99996 10.3432 10.3431 9.00001 12 9.00001C12.113 9.00001 12.2247 9.00626 12.3345 9.01845Z" fill="#060F33"/>
</svg>
