<svg xmlns="http://www.w3.org/2000/svg" width="129.48" height="214.809" viewBox="0 0 129.48 214.809">
  <g id="Group_173" data-name="Group 173" transform="translate(2063 -2361.384)">
    <path id="Path_3649" data-name="Path 3649" d="M322.27,209.906v29.4h75.222V206.5s-15.609-6.805-32.322-1.7C344.058,211.24,325.614,212.735,322.27,209.906Z" transform="translate(-2358.122 2248.624)" fill="#fff"/>
    <path id="Path_3650" data-name="Path 3650" d="M279.669,59.955a4.03,4.03,0,1,1-4.03-4.1A4.03,4.03,0,0,1,279.669,59.955Z" transform="translate(-2334.609 2316.878)" fill="#fff"/>
    <path id="Path_3651" data-name="Path 3651" d="M279.669,82.915a4.03,4.03,0,1,1-4.03-4.1A4.072,4.072,0,0,1,279.669,82.915Z" transform="translate(-2334.609 2306.222)" fill="#fff"/>
    <path id="Path_3652" data-name="Path 3652" d="M279.669,105.864a4.057,4.057,0,1,1-1.166-2.883A4.03,4.03,0,0,1,279.669,105.864Z" transform="translate(-2334.608 2295.565)" fill="#fff"/>
    <path id="Path_3653" data-name="Path 3653" d="M279.669,128.815a4.03,4.03,0,1,1-4.03-4.1A4.072,4.072,0,0,1,279.669,128.815Z" transform="translate(-2334.609 2284.917)" fill="#fff"/>
    <path id="Path_3654" data-name="Path 3654" d="M279.669,151.769a4.058,4.058,0,1,1-1.164-2.886A4.03,4.03,0,0,1,279.669,151.769Z" transform="translate(-2334.608 2274.26)" fill="#fff"/>
    <path id="Path_3655" data-name="Path 3655" d="M279.669,174.719a4.03,4.03,0,1,1-4.03-4.1A4.03,4.03,0,0,1,279.669,174.719Z" transform="translate(-2334.608 2263.608)" fill="#fff"/>
    <path id="Path_3656" data-name="Path 3656" d="M302.234,59.955a4.061,4.061,0,1,1-1.161-2.887A4.027,4.027,0,0,1,302.234,59.955Z" transform="translate(-2345.084 2316.878)" fill="#fff"/>
    <path id="Path_3657" data-name="Path 3657" d="M302.234,82.915a4.027,4.027,0,1,1-4.024-4.1,4.027,4.027,0,0,1,4.024,4.1Z" transform="translate(-2345.084 2306.222)" fill="#fff"/>
    <path id="Path_3658" data-name="Path 3658" d="M302.233,105.864a4.053,4.053,0,1,1-1.162-2.882,4.027,4.027,0,0,1,1.162,2.882Z" transform="translate(-2345.083 2295.565)" fill="#fff"/>
    <path id="Path_3659" data-name="Path 3659" d="M302.234,128.815a4.027,4.027,0,1,1-4.024-4.1A4.069,4.069,0,0,1,302.234,128.815Z" transform="translate(-2345.084 2284.917)" fill="#fff"/>
    <path id="Path_3660" data-name="Path 3660" d="M302.233,151.769a4.054,4.054,0,1,1-1.161-2.885,4.027,4.027,0,0,1,1.161,2.885Z" transform="translate(-2345.084 2274.26)" fill="#fff"/>
    <path id="Path_3661" data-name="Path 3661" d="M302.233,174.719a4.027,4.027,0,1,1-4.024-4.1,4.027,4.027,0,0,1,4.024,4.1Z" transform="translate(-2345.084 2263.608)" fill="#fff"/>
    <path id="Path_3662" data-name="Path 3662" d="M324.789,59.955a4.03,4.03,0,1,1-4.035-4.1A4.072,4.072,0,0,1,324.789,59.955Z" transform="translate(-2355.551 2316.878)" fill="#fff"/>
    <path id="Path_3663" data-name="Path 3663" d="M324.789,82.915a4.03,4.03,0,1,1-4.035-4.1A4.076,4.076,0,0,1,324.789,82.915Z" transform="translate(-2355.551 2306.222)" fill="#fff"/>
    <path id="Path_3664" data-name="Path 3664" d="M324.789,105.864a4.062,4.062,0,1,1-1.169-2.883,4.03,4.03,0,0,1,1.169,2.883Z" transform="translate(-2355.551 2295.565)" fill="#fff"/>
    <path id="Path_3665" data-name="Path 3665" d="M324.789,128.815a4.03,4.03,0,1,1-4.035-4.1A4.078,4.078,0,0,1,324.789,128.815Z" transform="translate(-2355.551 2284.917)" fill="#fff"/>
    <path id="Path_3666" data-name="Path 3666" d="M324.789,151.769a4.063,4.063,0,1,1-1.167-2.887A4.03,4.03,0,0,1,324.789,151.769Z" transform="translate(-2355.55 2274.26)" fill="#fff"/>
    <path id="Path_3667" data-name="Path 3667" d="M347.354,59.955a4.033,4.033,0,1,1-4.035-4.1A4.033,4.033,0,0,1,347.354,59.955Z" transform="translate(-2366.022 2316.878)" fill="#fff"/>
    <path id="Path_3668" data-name="Path 3668" d="M347.354,82.915a4.033,4.033,0,1,1-4.035-4.1A4.076,4.076,0,0,1,347.354,82.915Z" transform="translate(-2366.022 2306.222)" fill="#fff"/>
    <path id="Path_3669" data-name="Path 3669" d="M347.354,105.864a4.062,4.062,0,1,1-1.169-2.883A4.033,4.033,0,0,1,347.354,105.864Z" transform="translate(-2366.022 2295.565)" fill="#fff"/>
    <path id="Path_3670" data-name="Path 3670" d="M347.354,128.815a4.033,4.033,0,1,1-4.035-4.1A4.078,4.078,0,0,1,347.354,128.815Z" transform="translate(-2366.022 2284.917)" fill="#fff"/>
    <path id="Path_3671" data-name="Path 3671" d="M437.589,59.955a4.061,4.061,0,1,1-1.161-2.887A4.03,4.03,0,0,1,437.589,59.955Z" transform="translate(-2407.907 2316.878)" fill="#fff"/>
    <path id="Path_3672" data-name="Path 3672" d="M437.589,82.915a4.03,4.03,0,1,1-4.024-4.1A4.03,4.03,0,0,1,437.589,82.915Z" transform="translate(-2407.907 2306.222)" fill="#fff"/>
    <path id="Path_3673" data-name="Path 3673" d="M437.589,105.864a4.053,4.053,0,1,1-1.162-2.882,4.03,4.03,0,0,1,1.162,2.882Z" transform="translate(-2407.907 2295.565)" fill="#fff"/>
    <path id="Path_3674" data-name="Path 3674" d="M437.589,128.815a4.03,4.03,0,1,1-4.024-4.1A4.03,4.03,0,0,1,437.589,128.815Z" transform="translate(-2407.907 2284.917)" fill="#fff"/>
    <path id="Path_3675" data-name="Path 3675" d="M460.159,59.955a4.03,4.03,0,1,1-4.024-4.1A4.03,4.03,0,0,1,460.159,59.955Z" transform="translate(-2418.383 2316.878)" fill="#fff"/>
    <path id="Path_3676" data-name="Path 3676" d="M460.159,82.915a4.03,4.03,0,1,1-4.024-4.1,4.072,4.072,0,0,1,4.024,4.1Z" transform="translate(-2418.383 2306.222)" fill="#fff"/>
    <path id="Path_3677" data-name="Path 3677" d="M460.159,105.864A4.056,4.056,0,1,1,459,102.983a4.03,4.03,0,0,1,1.163,2.881Z" transform="translate(-2418.383 2295.565)" fill="#fff"/>
    <path id="Path_3678" data-name="Path 3678" d="M460.159,128.815a4.03,4.03,0,1,1-4.024-4.1A4.072,4.072,0,0,1,460.159,128.815Z" transform="translate(-2418.383 2284.917)" fill="#fff"/>
    <path id="Path_3679" data-name="Path 3679" d="M460.159,151.769A4.057,4.057,0,1,1,459,148.885,4.03,4.03,0,0,1,460.159,151.769Z" transform="translate(-2418.383 2274.26)" fill="#fff"/>
    <path id="Path_3680" data-name="Path 3680" d="M482.724,59.955a4.059,4.059,0,1,1-1.164-2.891A4.027,4.027,0,0,1,482.724,59.955Z" transform="translate(-2428.859 2316.878)" fill="#fff"/>
    <path id="Path_3681" data-name="Path 3681" d="M482.724,82.915a4.065,4.065,0,1,1-1.166-2.889A4.027,4.027,0,0,1,482.724,82.915Z" transform="translate(-2428.859 2306.222)" fill="#fff"/>
    <path id="Path_3682" data-name="Path 3682" d="M482.723,105.864a4.052,4.052,0,1,1-1.166-2.886A4.027,4.027,0,0,1,482.723,105.864Z" transform="translate(-2428.858 2295.565)" fill="#fff"/>
    <path id="Path_3683" data-name="Path 3683" d="M482.724,128.815a4.068,4.068,0,1,1-1.167-2.889A4.027,4.027,0,0,1,482.724,128.815Z" transform="translate(-2428.859 2284.917)" fill="#fff"/>
    <path id="Path_3684" data-name="Path 3684" d="M482.723,151.769a4.053,4.053,0,1,1-1.164-2.89,4.027,4.027,0,0,1,1.164,2.89Z" transform="translate(-2428.859 2274.26)" fill="#fff"/>
    <path id="Path_3685" data-name="Path 3685" d="M482.723,174.719a4.061,4.061,0,1,1-1.167-2.887A4.027,4.027,0,0,1,482.723,174.719Z" transform="translate(-2428.859 2263.608)" fill="#fff"/>
    <path id="Path_3686" data-name="Path 3686" d="M505.28,59.955a4.065,4.065,0,1,1-1.168-2.891,4.036,4.036,0,0,1,1.168,2.891Z" transform="translate(-2439.321 2316.878)" fill="#fff"/>
    <path id="Path_3687" data-name="Path 3687" d="M505.28,82.915a4.035,4.035,0,1,1-4.04-4.1A4.036,4.036,0,0,1,505.28,82.915Z" transform="translate(-2439.321 2306.222)" fill="#fff"/>
    <path id="Path_3688" data-name="Path 3688" d="M505.279,105.864a4.056,4.056,0,1,1-1.169-2.887,4.035,4.035,0,0,1,1.169,2.887Z" transform="translate(-2439.321 2295.565)" fill="#fff"/>
    <path id="Path_3689" data-name="Path 3689" d="M505.28,128.815a4.035,4.035,0,1,1-4.04-4.1A4.036,4.036,0,0,1,505.28,128.815Z" transform="translate(-2439.321 2284.917)" fill="#fff"/>
    <path id="Path_3690" data-name="Path 3690" d="M505.279,151.769a4.057,4.057,0,1,1-1.167-2.89A4.035,4.035,0,0,1,505.279,151.769Z" transform="translate(-2439.321 2274.26)" fill="#fff"/>
    <path id="Path_3691" data-name="Path 3691" d="M505.279,174.719a4.065,4.065,0,1,1-1.17-2.888,4.036,4.036,0,0,1,1.17,2.888Z" transform="translate(-2439.321 2263.608)" fill="#fff"/>
    <path id="Path_3692" data-name="Path 3692" d="M279.669,197.669a4.03,4.03,0,1,1-4.03-4.089A4.073,4.073,0,0,1,279.669,197.669Z" transform="translate(-2334.608 2252.951)" fill="#fff"/>
    <path id="Path_3693" data-name="Path 3693" d="M279.669,220.62a4.068,4.068,0,1,1-1.163-2.89,4.03,4.03,0,0,1,1.163,2.89Z" transform="translate(-2334.609 2242.308)" fill="#fff"/>
    <path id="Path_3694" data-name="Path 3694" d="M279.668,243.575a4.065,4.065,0,1,1-1.16-2.894A4.031,4.031,0,0,1,279.668,243.575Z" transform="translate(-2334.608 2231.657)" fill="#fff"/>
    <path id="Path_3695" data-name="Path 3695" d="M279.669,266.514a4.03,4.03,0,1,1-4.03-4.094A4.073,4.073,0,0,1,279.669,266.514Z" transform="translate(-2334.608 2220.999)" fill="#fff"/>
    <path id="Path_3696" data-name="Path 3696" d="M279.669,289.479a4.03,4.03,0,1,1-4.03-4.089A4.03,4.03,0,0,1,279.669,289.479Z" transform="translate(-2334.608 2210.337)" fill="#fff"/>
    <path id="Path_3697" data-name="Path 3697" d="M279.669,312.429a4.06,4.06,0,1,1-1.164-2.886,4.03,4.03,0,0,1,1.164,2.886Z" transform="translate(-2334.608 2199.69)" fill="#fff"/>
    <path id="Path_3698" data-name="Path 3698" d="M302.233,197.669a4.027,4.027,0,1,1-4.024-4.089,4.069,4.069,0,0,1,4.024,4.089Z" transform="translate(-2345.084 2252.951)" fill="#fff"/>
    <path id="Path_3699" data-name="Path 3699" d="M302.233,220.62a4.063,4.063,0,1,1-1.16-2.89,4.028,4.028,0,0,1,1.16,2.89Z" transform="translate(-2345.083 2242.308)" fill="#fff"/>
    <path id="Path_3700" data-name="Path 3700" d="M302.233,243.575a4.061,4.061,0,1,1-1.157-2.894,4.028,4.028,0,0,1,1.157,2.894Z" transform="translate(-2345.084 2231.657)" fill="#fff"/>
    <path id="Path_3701" data-name="Path 3701" d="M302.233,266.514a4.027,4.027,0,1,1-4.024-4.094,4.069,4.069,0,0,1,4.024,4.094Z" transform="translate(-2345.083 2220.999)" fill="#fff"/>
    <path id="Path_3702" data-name="Path 3702" d="M302.233,289.478a4.027,4.027,0,1,1-4.024-4.089A4.027,4.027,0,0,1,302.233,289.478Z" transform="translate(-2345.084 2210.337)" fill="#fff"/>
    <path id="Path_3703" data-name="Path 3703" d="M302.233,312.429a4.055,4.055,0,1,1-1.161-2.885A4.027,4.027,0,0,1,302.233,312.429Z" transform="translate(-2345.084 2199.69)" fill="#fff"/>
    <path id="Path_3704" data-name="Path 3704" d="M324.789,289.479a4.03,4.03,0,1,1-4.035-4.089A4.073,4.073,0,0,1,324.789,289.479Z" transform="translate(-2355.55 2210.337)" fill="#fff"/>
    <path id="Path_3705" data-name="Path 3705" d="M324.789,312.429a4.064,4.064,0,1,1-1.168-2.886,4.03,4.03,0,0,1,1.168,2.886Z" transform="translate(-2355.55 2199.69)" fill="#fff"/>
    <path id="Path_3706" data-name="Path 3706" d="M347.354,289.478a4.033,4.033,0,1,1-4.035-4.089A4.033,4.033,0,0,1,347.354,289.478Z" transform="translate(-2366.022 2210.337)" fill="#fff"/>
    <path id="Path_3707" data-name="Path 3707" d="M347.354,312.429a4.064,4.064,0,1,1-1.167-2.886A4.033,4.033,0,0,1,347.354,312.429Z" transform="translate(-2366.022 2199.69)" fill="#fff"/>
    <path id="Path_3708" data-name="Path 3708" d="M369.923,289.479a4.027,4.027,0,1,1-4.035-4.089A4.073,4.073,0,0,1,369.923,289.479Z" transform="translate(-2376.502 2210.337)" fill="#fff"/>
    <path id="Path_3709" data-name="Path 3709" d="M369.923,312.429a4.064,4.064,0,1,1-1.167-2.886A4.027,4.027,0,0,1,369.923,312.429Z" transform="translate(-2376.503 2199.69)" fill="#fff"/>
    <path id="Path_3710" data-name="Path 3710" d="M392.473,289.478a4.027,4.027,0,1,1-4.03-4.089A4.028,4.028,0,0,1,392.473,289.478Z" transform="translate(-2386.969 2210.337)" fill="#fff"/>
    <path id="Path_3711" data-name="Path 3711" d="M392.474,312.429a4.06,4.06,0,1,1-1.164-2.886,4.027,4.027,0,0,1,1.164,2.886Z" transform="translate(-2386.969 2199.69)" fill="#fff"/>
    <path id="Path_3712" data-name="Path 3712" d="M415.034,289.478A4.033,4.033,0,1,1,411,285.39,4.033,4.033,0,0,1,415.034,289.478Z" transform="translate(-2397.436 2210.337)" fill="#fff"/>
    <path id="Path_3713" data-name="Path 3713" d="M415.034,312.429a4.033,4.033,0,1,1-4.03-4.1A4.033,4.033,0,0,1,415.034,312.429Z" transform="translate(-2397.436 2199.69)" fill="#fff"/>
    <path id="Path_3714" data-name="Path 3714" d="M437.589,289.479a4.03,4.03,0,1,1-4.024-4.089A4.03,4.03,0,0,1,437.589,289.479Z" transform="translate(-2407.906 2210.337)" fill="#fff"/>
    <path id="Path_3715" data-name="Path 3715" d="M437.589,312.429a4.055,4.055,0,1,1-1.161-2.885A4.03,4.03,0,0,1,437.589,312.429Z" transform="translate(-2407.907 2199.69)" fill="#fff"/>
    <path id="Path_3716" data-name="Path 3716" d="M460.159,289.479a4.03,4.03,0,1,1-4.024-4.089A4.03,4.03,0,0,1,460.159,289.479Z" transform="translate(-2418.383 2210.337)" fill="#fff"/>
    <path id="Path_3717" data-name="Path 3717" d="M460.159,312.429A4.059,4.059,0,1,1,459,309.545,4.03,4.03,0,0,1,460.159,312.429Z" transform="translate(-2418.383 2199.69)" fill="#fff"/>
    <path id="Path_3718" data-name="Path 3718" d="M482.723,197.669a4.027,4.027,0,1,1-4.035-4.089A4.027,4.027,0,0,1,482.723,197.669Z" transform="translate(-2428.858 2252.951)" fill="#fff"/>
    <path id="Path_3719" data-name="Path 3719" d="M482.723,220.62a4.062,4.062,0,1,1-1.163-2.894A4.028,4.028,0,0,1,482.723,220.62Z" transform="translate(-2428.858 2242.308)" fill="#fff"/>
    <path id="Path_3720" data-name="Path 3720" d="M482.723,243.575a4.059,4.059,0,1,1-1.16-2.9A4.028,4.028,0,0,1,482.723,243.575Z" transform="translate(-2428.858 2231.657)" fill="#fff"/>
    <path id="Path_3721" data-name="Path 3721" d="M482.723,266.514a4.027,4.027,0,1,1-4.035-4.094A4.027,4.027,0,0,1,482.723,266.514Z" transform="translate(-2428.858 2220.999)" fill="#fff"/>
    <path id="Path_3722" data-name="Path 3722" d="M482.723,289.479a4.06,4.06,0,1,1-1.17-2.881A4.027,4.027,0,0,1,482.723,289.479Z" transform="translate(-2428.858 2210.337)" fill="#fff"/>
    <path id="Path_3723" data-name="Path 3723" d="M482.723,312.429a4.054,4.054,0,1,1-1.164-2.889A4.027,4.027,0,0,1,482.723,312.429Z" transform="translate(-2428.859 2199.69)" fill="#fff"/>
    <path id="Path_3724" data-name="Path 3724" d="M505.279,197.668a4.035,4.035,0,1,1-4.04-4.088,4.035,4.035,0,0,1,4.04,4.088Z" transform="translate(-2439.32 2252.951)" fill="#fff"/>
    <path id="Path_3725" data-name="Path 3725" d="M505.28,220.62a4.067,4.067,0,1,1-1.166-2.894A4.035,4.035,0,0,1,505.28,220.62Z" transform="translate(-2439.321 2242.308)" fill="#fff"/>
    <path id="Path_3726" data-name="Path 3726" d="M505.28,243.575a4.064,4.064,0,1,1-1.164-2.9A4.035,4.035,0,0,1,505.28,243.575Z" transform="translate(-2439.322 2231.657)" fill="#fff"/>
    <path id="Path_3727" data-name="Path 3727" d="M505.279,266.514a4.035,4.035,0,1,1-4.04-4.094A4.036,4.036,0,0,1,505.279,266.514Z" transform="translate(-2439.321 2220.999)" fill="#fff"/>
    <path id="Path_3728" data-name="Path 3728" d="M505.279,289.479a4.035,4.035,0,1,1-4.04-4.089A4.035,4.035,0,0,1,505.279,289.479Z" transform="translate(-2439.32 2210.337)" fill="#fff"/>
    <path id="Path_3729" data-name="Path 3729" d="M505.279,312.429a4.059,4.059,0,1,1-1.168-2.89A4.036,4.036,0,0,1,505.279,312.429Z" transform="translate(-2439.321 2199.69)" fill="#fff"/>
    <path id="Path_3730" data-name="Path 3730" d="M532.414,62.637H531.5V56.544h-.031l-1.988,6.093h-.54L527,56.544h-.023v6.093h-.917v-7.1h1.48l1.67,5.01,1.728-5.01h1.468v7.1Zm-7.383-6.093h-1.86v6.093H522.2V56.544h-1.88V55.53h4.711Z" transform="translate(-2466.455 2305.854)" fill="#fff"/>
    <g id="Group_3559" data-name="Group 3559" transform="translate(-2062.993 2523.511)">
      <path id="Path_3731" data-name="Path 3731" d="M271.207,343.089a2.326,2.326,0,0,0-2.511-1.733,2.787,2.787,0,0,0-2.086.778,2.012,2.012,0,0,0-.654,1.567,2.434,2.434,0,0,0,.664,1.728,5.879,5.879,0,0,0,1.816,1.219,9.419,9.419,0,0,1,1.775,1.1,2.029,2.029,0,0,1,.571,1.432,2.158,2.158,0,0,1-.5,1.4,2.266,2.266,0,0,1-3.793-.581l-.706.1a2.61,2.61,0,0,0,2.807,1.8,3.036,3.036,0,0,0,2.252-1.012,2.558,2.558,0,0,0,.7-1.785,2.6,2.6,0,0,0-.659-1.759,9.1,9.1,0,0,0-1.8-1.173,7.559,7.559,0,0,1-1.806-1.131,1.791,1.791,0,0,1-.566-1.37,1.556,1.556,0,0,1,.462-1.188,2.16,2.16,0,0,1,1.51-.581,1.861,1.861,0,0,1,1.842,1.266Z" transform="translate(-265.78 -341.351)" fill="#fff"/>
      <path id="Path_3732" data-name="Path 3732" d="M291.958,341.74h-.726v6.838c0,1.909-.384,2.963-2.075,2.963-1.65,0-2.049-1.079-2.049-2.963V341.74h-.726v6.823c0,2.532.778,3.518,2.776,3.518,2.055,0,2.807-1.017,2.807-3.518V341.74Z" transform="translate(-275.692 -341.538)" fill="#fff"/>
      <path id="Path_3733" data-name="Path 3733" d="M311.479,351.339H308.1v-9.6h-.726v10.143h4.109v-.545Z" transform="translate(-285.791 -341.538)" fill="#fff"/>
      <path id="Path_3734" data-name="Path 3734" d="M328.376,342.29h-2.4v9.593h-.732V342.29h-2.4v-.55h5.52v.55Z" transform="translate(-293.239 -341.538)" fill="#fff"/>
      <path id="Path_3735" data-name="Path 3735" d="M342.69,348.563l-.986,3.321h-.815l3.155-10.143h.918l3.165,10.143h-.82l-.991-3.321Zm2.636-3.372c-.265-.929-.534-1.826-.8-2.848h-.057c-.249,1.007-.508,1.93-.773,2.838l-.82,2.828h3.258Z" transform="translate(-301.919 -341.538)" fill="#fff"/>
      <path id="Path_3736" data-name="Path 3736" d="M369.368,351.095c-.062-1.629-.067-4.8-.067-9.355h.706v10.143h-1c-2.221-4.618-3.7-7.752-4.4-9.36h-.042c.047,1.614.052,4.773.052,9.36h-.706V341.74h1.017c2.221,4.561,3.7,7.736,4.4,9.355Z" transform="translate(-312.996 -341.538)" fill="#fff"/>
      <path id="Path_3737" data-name="Path 3737" d="M408.872,351.105c.524-1.665,1.593-4.742,3.2-9.365h1.105v10.143h-.69c0-4.69.005-7.861.052-9.51h-.042c-.529,1.634-1.608,4.753-3.274,9.51h-.737c-1.634-4.706-2.724-7.866-3.269-9.51h-.042c.052,1.65.057,4.815.057,9.51h-.69V341.74h1.105c1.6,4.649,2.672,7.7,3.2,9.365Z" transform="translate(-332.545 -341.538)" fill="#fff"/>
      <path id="Path_3738" data-name="Path 3738" d="M435.186,346.3v.555h-2.869v4.488h3.7v.55H431.59V341.75H435.9v.55h-3.585v4.005h2.869Z" transform="translate(-345.56 -341.542)" fill="#fff"/>
      <path id="Path_3739" data-name="Path 3739" d="M449.9,351.883V341.74h2.138c2.537,0,3.813,1.411,3.813,5.054,0,3.466-1.157,5.09-3.8,5.09Zm2.143-.55c2.065,0,3.056-1.359,3.056-4.524,0-3.129-.949-4.519-3.066-4.519h-1.4v9.043Z" transform="translate(-354.37 -341.538)" fill="#fff"/>
      <path id="Path_3740" data-name="Path 3740" d="M471.2,351.883V341.74h.737v10.143Z" transform="translate(-364.618 -341.538)" fill="#fff"/>
      <path id="Path_3741" data-name="Path 3741" d="M488.167,349.283c-.332,1.3-1.235,2.61-2.646,2.61a2.518,2.518,0,0,1-2.252-1.25,7.241,7.241,0,0,1-.908-4.037,7.453,7.453,0,0,1,.892-3.943,2.643,2.643,0,0,1,2.288-1.313c1.266,0,2.148.856,2.459,2.407l-.711.088c-.254-1.2-.8-1.961-1.759-1.961-1.2,0-2.439,1.053-2.439,4.742,0,3.736,1.193,4.727,2.413,4.727,1.121,0,1.733-1.24,1.946-2.19Z" transform="translate(-369.984 -341.35)" fill="#fff"/>
      <path id="Path_3742" data-name="Path 3742" d="M503.165,348.563l-.986,3.321h-.809l3.155-10.143h.918l3.165,10.143h-.82l-.991-3.321Zm2.641-3.372c-.27-.929-.534-1.826-.8-2.848h-.057c-.254,1.007-.508,1.93-.773,2.838l-.825,2.828h3.263Z" transform="translate(-379.135 -341.538)" fill="#fff"/>
    </g>
    <g id="Group_3561" data-name="Group 3561" transform="translate(-2063 2550.568)">
      <path id="Path_3743" data-name="Path 3743" d="M140.215,415.439a1.06,1.06,0,0,0,1.022-1.125,1.017,1.017,0,0,0-.922-1.063,1.162,1.162,0,0,0-1.109,1.126,1.008,1.008,0,0,0,1.01,1.063Z" transform="translate(-136.727 -410.701)" fill="#fff"/>
      <path id="Path_3744" data-name="Path 3744" d="M129.474,415.8a1.074,1.074,0,0,0,1.042-1.107.965.965,0,0,0-1.005-1.028,1.051,1.051,0,0,0-1.022,1.07A1.093,1.093,0,0,0,129.474,415.8Z" transform="translate(-128.489 -411.021)" fill="#fff"/>
      <path id="Path_3745" data-name="Path 3745" d="M169.135,452.819a.958.958,0,0,0-.982,1.022,1.03,1.03,0,0,0,.961,1.049.968.968,0,0,0,.966-1.065A.89.89,0,0,0,169.135,452.819Z" transform="translate(-158.985 -441.124)" fill="#fff"/>
      <path id="Path_3746" data-name="Path 3746" d="M139.408,429.2v-4.331c-.945.781-1.87.492-1.87,1.558v1.724H133.99v-4.1c-.719.76-1.253.391-1.805,1.193a3.086,3.086,0,0,0-3,3.2v1.643h9.129A1.042,1.042,0,0,0,139.408,429.2Zm-7.366-1.047h-1.028c-.018-.016-.023-.009-.023,0a1.215,1.215,0,0,0,.023-.2,1.122,1.122,0,0,1,1.028-.945Z" transform="translate(-129.028 -419.005)" fill="#fff"/>
      <path id="Path_3747" data-name="Path 3747" d="M158.716,452.548a1.09,1.09,0,0,0-1.128,1.084,1.018,1.018,0,0,0,1.068,1.049c.534,0,.86-.6.86-1.065C159.518,453.186,159.208,452.548,158.716,452.548Z" transform="translate(-150.863 -440.916)" fill="#fff"/>
      <path id="Path_3748" data-name="Path 3748" d="M186.848,420.281c.469,0,.841-.638.841-1.045a.982.982,0,0,0-.987-1.026,1.058,1.058,0,0,0-.982,1.026,1.046,1.046,0,0,0,1.128,1.045Z" transform="translate(-172.493 -414.514)" fill="#fff"/>
      <path id="Path_3749" data-name="Path 3749" d="M194.993,417.871H192c-.1,0-1.028.06-1.028-.411,0-.349,2.729-2.029,3.238-2.417l-.081-.552c-1.414.693-2.829,1.394-4.264,2.112-1.19.594-2.526,1.169-3.7,1.847-.448.268-.367.451-.367.594v.7h8.535c.469,0,.922.206.922.7v.372H184.006v-2.422a6.5,6.5,0,0,1-1.315.719c-.229.122-.617.552-.617.779v3.735h-.964v.716a1.466,1.466,0,0,0,1.149,1.19h.557a1.369,1.369,0,0,0,1.19-1.19v-1.6h12.2a.992.992,0,0,0,.987-1.049v-1.56A2.419,2.419,0,0,0,194.993,417.871Z" transform="translate(-168.949 -411.654)" fill="#fff"/>
      <path id="Path_3750" data-name="Path 3750" d="M268,404.291v7.366h-2.316a1.928,1.928,0,0,0-.86-.987c-.328-.183-.9-.492-1.072-.883-.407.575-1,.76-1.5,1.149a3.437,3.437,0,0,0-.529.721h-2.459v-2.422a6.51,6.51,0,0,1-1.317.719c-.22.122-.615.552-.615.779v3.735h-.964v.716a1.466,1.466,0,0,0,1.149,1.19h.559a1.372,1.372,0,0,0,1.19-1.19v-1.6h2.459a2.17,2.17,0,0,0,3.957,0h3.259a.964.964,0,0,0,.945-1.089V402.59c-.2.206-.388.453-.55.615C269.171,403.348,268,403.718,268,404.291Zm-4.324,8.9a.653.653,0,0,1-.615-.615.663.663,0,0,1,.652-.615.637.637,0,0,1,.615.594A.684.684,0,0,1,263.673,413.193Z" transform="translate(-226.815 -402.504)" fill="#fff"/>
      <path id="Path_3751" data-name="Path 3751" d="M320.7,405.083V414.4h1.9V403.65C322.01,404.306,320.7,404.408,320.7,405.083Z" transform="translate(-276.277 -403.319)" fill="#fff"/>
      <path id="Path_3752" data-name="Path 3752" d="M351.628,436.256v1.438a1.25,1.25,0,0,1-1,1.229,1.2,1.2,0,0,1-1.19-1.229v-2.115h-.37a2.076,2.076,0,0,0-1.535,1.7v.9a3.036,3.036,0,0,0,6.051-.49V434.37C352.446,435.371,351.628,435.024,351.628,436.256Z" transform="translate(-296.906 -426.94)" fill="#fff"/>
      <path id="Path_3753" data-name="Path 3753" d="M357.223,430.038a1.034,1.034,0,1,0,.023-2.069,1.092,1.092,0,0,0-1.026,1.066,1,1,0,0,0,1,1Z" transform="translate(-303.588 -422.018)" fill="#fff"/>
      <path id="Path_3754" data-name="Path 3754" d="M405.183,409.791v1.581h-.765v-2.521c-.511.243-1.232.326-1.5.716a.958.958,0,0,0-.18.367v1.438h-.719V409.71c-.448,0-1.68.391-1.68,1.086v.576h-2.2V402.3c-.2.206-.368.453-.534.615-.162.143-1.329.515-1.329,1.086v7.366h-2.424v-.924a2.313,2.313,0,0,0-2.237-2.112h-4.491a1.849,1.849,0,0,0-1.6.758v-6.522a3.288,3.288,0,0,1-1.07.7c-.18.1-.922.183-.922.631v7.47h-2.725v-7.181c0-.82-.844-.922-1.477-1.435-.183-.125-.328-.409-.511-.534v10.028c0,.495.425,1.049.86,1.049h26.477a.927.927,0,0,0,.721-.825v-4.428C406.142,408.83,405.183,408.52,405.183,409.791Zm-13.252,1.581h-6.4v-1.109h5.618a.752.752,0,0,1,.783.659v.451Z" transform="translate(-320.965 -402.22)" fill="#fff"/>
      <path id="Path_3755" data-name="Path 3755" d="M540.068,420.1a.936.936,0,0,0,.964-1.026.982.982,0,0,0-.964-1.045,1.121,1.121,0,0,0-.968,1.084A.89.89,0,0,0,540.068,420.1Z" transform="translate(-444.202 -414.376)" fill="#fff"/>
      <path id="Path_3756" data-name="Path 3756" d="M529.177,420.373a1.037,1.037,0,0,0,.042-2.073,1.161,1.161,0,0,0-1.028,1.084A1.09,1.09,0,0,0,529.177,420.373Z" transform="translate(-435.813 -414.584)" fill="#fff"/>
      <path id="Path_3757" data-name="Path 3757" d="M525.831,428.206a1.039,1.039,0,0,0-.37.922V430.7h-3.839v-2.357c-.37.532-1.842.7-1.842,1.269v2.177c0,.469.407.88,1.2.88h5.269c.333,0,1.026-.391,1.026-.8V427.42C526.871,427.917,526.214,427.956,525.831,428.206Z" transform="translate(-429.347 -421.596)" fill="#fff"/>
      <path id="Path_3758" data-name="Path 3758" d="M557.57,405.083V414.4h1.909V403.65C558.88,404.306,557.57,404.408,557.57,405.083Z" transform="translate(-458.403 -403.319)" fill="#fff"/>
      <path id="Path_3759" data-name="Path 3759" d="M590.557,453.879a1.028,1.028,0,0,0-1.047.985,1.08,1.08,0,0,0,1.065,1.086,1.029,1.029,0,0,0,.966-1.026A.94.94,0,0,0,590.557,453.879Z" transform="translate(-482.961 -441.94)" fill="#fff"/>
      <path id="Path_3760" data-name="Path 3760" d="M622.888,418.131a.975.975,0,0,0,.9-1.045,1.019,1.019,0,0,0-.948-1.086,1.113,1.113,0,0,0-1.024,1.086,1.053,1.053,0,0,0,1.068,1.045Z" transform="translate(-507.804 -412.815)" fill="#fff"/>
      <path id="Path_3761" data-name="Path 3761" d="M612.134,418.13c.529,0,.9-.617.9-1.086A.982.982,0,0,0,612.07,416a.994.994,0,0,0-1.008,1.063,1.057,1.057,0,0,0,1.072,1.068Z" transform="translate(-499.53 -412.815)" fill="#fff"/>
      <path id="Path_3762" data-name="Path 3762" d="M642.465,415.507a1.126,1.126,0,0,0,.984-1.126c0-.428-.474-1.042-.88-1.042a1.129,1.129,0,0,0-1.149,1.126A1.074,1.074,0,0,0,642.465,415.507Z" transform="translate(-522.874 -410.769)" fill="#fff"/>
      <path id="Path_3763" data-name="Path 3763" d="M597.021,426.624a3.7,3.7,0,0,0-2.69,1.435,3.877,3.877,0,0,0-.531,1.62h-1.826c-1.784-1.047-1.475-3.344-3.568-3.344a1.871,1.871,0,0,0-1.008.268v1.969a2.718,2.718,0,0,1,.576-.287.656.656,0,0,1,.37.06,9.219,9.219,0,0,1,1.019,1.336h-5.1v-3.323a7.017,7.017,0,0,1-1.5.82.819.819,0,0,0-.411.615v1.888h-3.263V426.4c-.656.677-1.313.575-1.657,1.026a.886.886,0,0,0-.229.575v1.683H574.3v-2.422a6.385,6.385,0,0,1-1.317.719c-.222.122-.615.552-.615.779v3.735H571.4v.716a1.465,1.465,0,0,0,1.151,1.19h.557a1.369,1.369,0,0,0,1.188-1.19v-1.6h23.031c.633,0,1.19-.266,1.19-.943V426.03A4.141,4.141,0,0,1,597.021,426.624Zm-.372,3.055h-1.005v-.226a.987.987,0,0,1,.781-.841h.227v1.068Z" transform="translate(-469.037 -420.527)" fill="#fff"/>
    </g>
    <g id="Group_3562" data-name="Group 3562" transform="translate(-2062.993 2567.09)">
      <path id="Path_3764" data-name="Path 3764" d="M94.31,483.22l.578-1.4a3.187,3.187,0,0,0,1.826.653c.923,0,1.379-.321,1.379-.961a1.355,1.355,0,0,0-.328-.861,4.141,4.141,0,0,0-1.34-.918,6.552,6.552,0,0,1-1.37-.835,2.221,2.221,0,0,1-.537-.779,2.55,2.55,0,0,1-.191-1,2.189,2.189,0,0,1,.749-1.693,2.75,2.75,0,0,1,1.918-.67,3.55,3.55,0,0,1,2.235.572l-.469,1.351a2.892,2.892,0,0,0-1.734-.6,1.173,1.173,0,0,0-.837.285.987.987,0,0,0-.3.743q0,.758,1.674,1.576a5.571,5.571,0,0,1,1.278.8,2.523,2.523,0,0,1,.6.846,2.819,2.819,0,0,1,.2,1.081,2.182,2.182,0,0,1-.841,1.758,3.479,3.479,0,0,1-2.263.689A4.012,4.012,0,0,1,94.31,483.22Z" transform="translate(-94.31 -474.758)" fill="#fff"/>
      <path id="Path_3765" data-name="Path 3765" d="M125.61,475.44h1.567v5.973a1.511,1.511,0,0,0,1.623,1.6,1.87,1.87,0,0,0,1.319-.435,1.545,1.545,0,0,0,.467-1.192V475.44h1.567V481.5a2.639,2.639,0,0,1-.91,2.126,3.648,3.648,0,0,1-2.432.771,3.409,3.409,0,0,1-2.368-.751,2.757,2.757,0,0,1-.833-2.149V475.44Z" transform="translate(-118.909 -475.294)" fill="#fff"/>
      <path id="Path_3766" data-name="Path 3766" d="M164.57,484.243v-8.8h1.565v7.42h3.974v1.383Z" transform="translate(-149.528 -475.294)" fill="#fff"/>
      <path id="Path_3767" data-name="Path 3767" d="M192.855,476.821v7.423h-1.567v-7.423h-2.8V475.44h7.29v1.381Z" transform="translate(-168.327 -475.294)" fill="#fff"/>
      <path id="Path_3768" data-name="Path 3768" d="M223.777,483.772l-.644-1.792h-3.014l-.614,1.792H217.77l3.507-8.932h.692l3.543,8.932Zm-2.158-6.247-1.055,3.263h2.113Z" transform="translate(-191.338 -474.823)" fill="#fff"/>
      <path id="Path_3769" data-name="Path 3769" d="M264,484.355l-4.286-5.558v5.447H258.2v-8.8h.741l4.177,5.3v-5.3h1.511v8.915Z" transform="translate(-223.112 -475.294)" fill="#fff"/>
      <path id="Path_3770" data-name="Path 3770" d="M318.4,475.386l-.642,1.291a2.3,2.3,0,0,0-1.681-.525,2.181,2.181,0,0,0-1.8.923,3.754,3.754,0,0,0-.7,2.34,3.5,3.5,0,0,0,.655,2.248,2.1,2.1,0,0,0,1.736.831,2.366,2.366,0,0,0,1.955-.891l.726,1.265a3.68,3.68,0,0,1-2.8,1.006,3.53,3.53,0,0,1-2.867-1.214,4.971,4.971,0,0,1-1.021-3.31,4.835,4.835,0,0,1,1.128-3.265,3.661,3.661,0,0,1,2.9-1.31A4.2,4.2,0,0,1,318.4,475.386Z" transform="translate(-265.353 -474.771)" fill="#fff"/>
      <path id="Path_3771" data-name="Path 3771" d="M350.569,476.821v2.072h2.83v1.321h-2.83v2.646h3.989v1.383H349v-8.8h5.558v1.381Z" transform="translate(-294.473 -475.294)" fill="#fff"/>
      <path id="Path_3772" data-name="Path 3772" d="M387.512,484.355l-4.29-5.558v5.447H381.71v-8.8h.747l4.177,5.3v-5.3h1.514v8.915Z" transform="translate(-320.18 -475.294)" fill="#fff"/>
      <path id="Path_3773" data-name="Path 3773" d="M420.867,476.821v7.423H419.3v-7.423h-2.8V475.44h7.3v1.381Z" transform="translate(-347.521 -475.294)" fill="#fff"/>
      <path id="Path_3774" data-name="Path 3774" d="M460.2,483.905l-2.342-3.637c-.238,0-.569-.017-1-.041v3.678H455.24V475.1c.088,0,.426-.015,1.015-.043s1.066-.045,1.428-.045q3.359,0,3.357,2.6a2.384,2.384,0,0,1-.46,1.422,2.525,2.525,0,0,1-1.171.908l2.6,3.969Zm-3.336-7.444v2.449c.289.024.509.034.666.034a2.847,2.847,0,0,0,1.434-.276,1.159,1.159,0,0,0,.452-1.075.942.942,0,0,0-.486-.908,3.437,3.437,0,0,0-1.535-.259A4.534,4.534,0,0,0,456.865,476.462Z" transform="translate(-377.967 -474.956)" fill="#fff"/>
      <path id="Path_3775" data-name="Path 3775" d="M492.353,483.772l-.647-1.792h-3.012l-.61,1.792H486.35l3.5-8.932h.694l3.545,8.932Zm-2.152-6.247-1.058,3.263h2.107Z" transform="translate(-402.417 -474.823)" fill="#fff"/>
      <path id="Path_3776" data-name="Path 3776" d="M526.76,484.243v-8.8h1.565v7.42H532.3v1.383Z" transform="translate(-434.175 -475.294)" fill="#fff"/>
      <path id="Path_3777" data-name="Path 3777" d="M573.71,484.243v-8.8h1.561v7.42h3.974v1.383Z" transform="translate(-471.074 -475.294)" fill="#fff"/>
      <path id="Path_3778" data-name="Path 3778" d="M607.463,483.772l-.642-1.792h-3.01l-.617,1.792H601.46l3.5-8.932h.694l3.543,8.932Zm-2.152-6.247-1.062,3.263h2.119Z" transform="translate(-492.883 -474.823)" fill="#fff"/>
      <path id="Path_3779" data-name="Path 3779" d="M644.568,483.968h-2.7v-8.793q1.782-.083,2.492-.086a3.472,3.472,0,0,1,2.141.589,1.968,1.968,0,0,1,.775,1.672,1.846,1.846,0,0,1-1.1,1.651,2.489,2.489,0,0,1,.728,4.26A3.714,3.714,0,0,1,644.568,483.968Zm-1.133-7.54v2.107c.244.017.49.024.756.024q1.525,0,1.524-1.147c0-.679-.465-1.015-1.385-1.015C644.084,476.4,643.784,476.409,643.435,476.428Zm0,3.325v2.905c.313.028.576.041.771.041a2.578,2.578,0,0,0,1.524-.353,1.379,1.379,0,0,0,.471-1.175,1.288,1.288,0,0,0-.445-1.092,2.532,2.532,0,0,0-1.529-.347C644.071,479.731,643.812,479.742,643.435,479.753Z" transform="translate(-524.641 -475.019)" fill="#fff"/>
      <path id="Path_3780" data-name="Path 3780" d="M674.17,483.22l.576-1.4a3.194,3.194,0,0,0,1.828.653q1.381,0,1.381-.961a1.376,1.376,0,0,0-.325-.861,4.259,4.259,0,0,0-1.342-.918,6.262,6.262,0,0,1-1.366-.835,2.248,2.248,0,0,1-.548-.779,2.628,2.628,0,0,1-.186-1,2.187,2.187,0,0,1,.747-1.693,2.75,2.75,0,0,1,1.914-.67,3.559,3.559,0,0,1,2.239.572l-.473,1.351a2.876,2.876,0,0,0-1.73-.6,1.166,1.166,0,0,0-.837.285,1,1,0,0,0-.3.743q0,.758,1.674,1.576a5.574,5.574,0,0,1,1.274.8,2.431,2.431,0,0,1,.6.846,2.781,2.781,0,0,1,.2,1.081,2.184,2.184,0,0,1-.844,1.758,3.47,3.47,0,0,1-2.267.689A4,4,0,0,1,674.17,483.22Z" transform="translate(-550.026 -474.759)" fill="#fff"/>
    </g>
  </g>
</svg>
