<svg xmlns="http://www.w3.org/2000/svg" width="129.73" height="163.577" viewBox="0 0 129.73 163.577">
  <g id="Group_175" data-name="Group 175" transform="translate(1915.25 -2494.785)">
    <path id="Path_3649" data-name="Path 3649" d="M322.27,209.906v29.4h75.222V206.5s-15.609-6.805-32.322-1.7C344.058,211.24,325.614,212.735,322.27,209.906Z" transform="translate(-2210.122 2370.93)" fill="#ee3c40" stroke="#562729" stroke-width="0.5"/>
    <path id="Path_3650" data-name="Path 3650" d="M279.669,59.955a4.03,4.03,0,1,1-4.03-4.1A4.03,4.03,0,0,1,279.669,59.955Z" transform="translate(-2186.609 2439.185)" fill="#fbd5d5" stroke="#562729" stroke-width="0.5"/>
    <path id="Path_3651" data-name="Path 3651" d="M279.669,82.915a4.03,4.03,0,1,1-4.03-4.1A4.072,4.072,0,0,1,279.669,82.915Z" transform="translate(-2186.609 2428.528)" fill="#f3777a" stroke="#562729" stroke-width="0.5"/>
    <path id="Path_3652" data-name="Path 3652" d="M279.669,105.864a4.057,4.057,0,1,1-1.166-2.883A4.03,4.03,0,0,1,279.669,105.864Z" transform="translate(-2186.608 2417.871)" fill="#ee3c40" stroke="#562729" stroke-width="0.5"/>
    <path id="Path_3653" data-name="Path 3653" d="M279.669,128.815a4.03,4.03,0,1,1-4.03-4.1A4.072,4.072,0,0,1,279.669,128.815Z" transform="translate(-2186.609 2407.224)" fill="#ee3c40" stroke="#562729" stroke-width="0.5"/>
    <path id="Path_3654" data-name="Path 3654" d="M279.669,151.769a4.058,4.058,0,1,1-1.164-2.886A4.03,4.03,0,0,1,279.669,151.769Z" transform="translate(-2186.608 2396.566)" fill="#f3777a" stroke="#562729" stroke-width="0.5"/>
    <path id="Path_3655" data-name="Path 3655" d="M279.669,174.719a4.03,4.03,0,1,1-4.03-4.1A4.03,4.03,0,0,1,279.669,174.719Z" transform="translate(-2186.608 2385.915)" fill="#f3777a" stroke="#562729" stroke-width="0.5"/>
    <path id="Path_3656" data-name="Path 3656" d="M302.234,59.955a4.061,4.061,0,1,1-1.161-2.887A4.027,4.027,0,0,1,302.234,59.955Z" transform="translate(-2197.084 2439.185)" fill="#ee3c40" stroke="#562729" stroke-width="0.5"/>
    <path id="Path_3657" data-name="Path 3657" d="M302.234,82.915a4.027,4.027,0,1,1-4.024-4.1,4.027,4.027,0,0,1,4.024,4.1Z" transform="translate(-2197.084 2428.528)" fill="#fbd5d5" stroke="#562729" stroke-width="0.5"/>
    <path id="Path_3658" data-name="Path 3658" d="M302.233,105.864a4.053,4.053,0,1,1-1.162-2.882,4.027,4.027,0,0,1,1.162,2.882Z" transform="translate(-2197.083 2417.871)" fill="#fbd5d5" stroke="#562729" stroke-width="0.5"/>
    <path id="Path_3659" data-name="Path 3659" d="M302.234,128.815a4.027,4.027,0,1,1-4.024-4.1A4.069,4.069,0,0,1,302.234,128.815Z" transform="translate(-2197.084 2407.224)" fill="#ee3c40" stroke="#562729" stroke-width="0.5"/>
    <path id="Path_3660" data-name="Path 3660" d="M302.233,151.769a4.054,4.054,0,1,1-1.161-2.885,4.027,4.027,0,0,1,1.161,2.885Z" transform="translate(-2197.084 2396.566)" fill="#ee3c40" stroke="#562729" stroke-width="0.5"/>
    <path id="Path_3661" data-name="Path 3661" d="M302.233,174.719a4.027,4.027,0,1,1-4.024-4.1,4.027,4.027,0,0,1,4.024,4.1Z" transform="translate(-2197.084 2385.915)" fill="#ee3c40" stroke="#562729" stroke-width="0.5"/>
    <path id="Path_3662" data-name="Path 3662" d="M324.789,59.955a4.03,4.03,0,1,1-4.035-4.1A4.072,4.072,0,0,1,324.789,59.955Z" transform="translate(-2207.551 2439.185)" fill="#fbd5d5" stroke="#562729" stroke-width="0.5"/>
    <path id="Path_3663" data-name="Path 3663" d="M324.789,82.915a4.03,4.03,0,1,1-4.035-4.1A4.076,4.076,0,0,1,324.789,82.915Z" transform="translate(-2207.551 2428.528)" fill="#f3777a" stroke="#562729" stroke-width="0.5"/>
    <path id="Path_3664" data-name="Path 3664" d="M324.789,105.864a4.062,4.062,0,1,1-1.169-2.883,4.03,4.03,0,0,1,1.169,2.883Z" transform="translate(-2207.551 2417.871)" fill="#ee3c40" stroke="#562729" stroke-width="0.5"/>
    <path id="Path_3665" data-name="Path 3665" d="M324.789,128.815a4.03,4.03,0,1,1-4.035-4.1A4.078,4.078,0,0,1,324.789,128.815Z" transform="translate(-2207.551 2407.224)" fill="#f3777a" stroke="#562729" stroke-width="0.5"/>
    <path id="Path_3666" data-name="Path 3666" d="M324.789,151.769a4.063,4.063,0,1,1-1.167-2.887A4.03,4.03,0,0,1,324.789,151.769Z" transform="translate(-2207.55 2396.566)" fill="#f3777a" stroke="#562729" stroke-width="0.5"/>
    <path id="Path_3667" data-name="Path 3667" d="M347.354,59.955a4.033,4.033,0,1,1-4.035-4.1A4.033,4.033,0,0,1,347.354,59.955Z" transform="translate(-2218.022 2439.185)" fill="#ee3c40" stroke="#562729" stroke-width="0.5"/>
    <path id="Path_3668" data-name="Path 3668" d="M347.354,82.915a4.033,4.033,0,1,1-4.035-4.1A4.076,4.076,0,0,1,347.354,82.915Z" transform="translate(-2218.022 2428.528)" fill="#ee3c40" stroke="#562729" stroke-width="0.5"/>
    <path id="Path_3669" data-name="Path 3669" d="M347.354,105.864a4.062,4.062,0,1,1-1.169-2.883A4.033,4.033,0,0,1,347.354,105.864Z" transform="translate(-2218.022 2417.871)" fill="#f3777a" stroke="#562729" stroke-width="0.5"/>
    <path id="Path_3670" data-name="Path 3670" d="M347.354,128.815a4.033,4.033,0,1,1-4.035-4.1A4.078,4.078,0,0,1,347.354,128.815Z" transform="translate(-2218.022 2407.224)" fill="#f3777a" stroke="#562729" stroke-width="0.5"/>
    <path id="Path_3671" data-name="Path 3671" d="M437.589,59.955a4.061,4.061,0,1,1-1.161-2.887A4.03,4.03,0,0,1,437.589,59.955Z" transform="translate(-2259.907 2439.185)" fill="#ee3c40" stroke="#562729" stroke-width="0.5"/>
    <path id="Path_3672" data-name="Path 3672" d="M437.589,82.915a4.03,4.03,0,1,1-4.024-4.1A4.03,4.03,0,0,1,437.589,82.915Z" transform="translate(-2259.907 2428.528)" fill="#f3777a" stroke="#562729" stroke-width="0.5"/>
    <path id="Path_3673" data-name="Path 3673" d="M437.589,105.864a4.053,4.053,0,1,1-1.162-2.882,4.03,4.03,0,0,1,1.162,2.882Z" transform="translate(-2259.907 2417.871)" fill="#fbd5d5" stroke="#562729" stroke-width="0.5"/>
    <path id="Path_3674" data-name="Path 3674" d="M437.589,128.815a4.03,4.03,0,1,1-4.024-4.1A4.03,4.03,0,0,1,437.589,128.815Z" transform="translate(-2259.907 2407.224)" fill="#ee3c40" stroke="#562729" stroke-width="0.5"/>
    <path id="Path_3675" data-name="Path 3675" d="M460.159,59.955a4.03,4.03,0,1,1-4.024-4.1A4.03,4.03,0,0,1,460.159,59.955Z" transform="translate(-2270.383 2439.185)" fill="#fbd5d5" stroke="#562729" stroke-width="0.5"/>
    <path id="Path_3676" data-name="Path 3676" d="M460.159,82.915a4.03,4.03,0,1,1-4.024-4.1,4.072,4.072,0,0,1,4.024,4.1Z" transform="translate(-2270.383 2428.528)" fill="#f3777a" stroke="#562729" stroke-width="0.5"/>
    <path id="Path_3677" data-name="Path 3677" d="M460.159,105.864A4.056,4.056,0,1,1,459,102.983a4.03,4.03,0,0,1,1.163,2.881Z" transform="translate(-2270.383 2417.871)" fill="#ee3c40" stroke="#562729" stroke-width="0.5"/>
    <path id="Path_3678" data-name="Path 3678" d="M460.159,128.815a4.03,4.03,0,1,1-4.024-4.1A4.072,4.072,0,0,1,460.159,128.815Z" transform="translate(-2270.383 2407.224)" fill="#f3777a" stroke="#562729" stroke-width="0.5"/>
    <path id="Path_3679" data-name="Path 3679" d="M460.159,151.769A4.057,4.057,0,1,1,459,148.885,4.03,4.03,0,0,1,460.159,151.769Z" transform="translate(-2270.383 2396.566)" fill="#f3777a" stroke="#562729" stroke-width="0.5"/>
    <path id="Path_3680" data-name="Path 3680" d="M482.724,59.955a4.059,4.059,0,1,1-1.164-2.891A4.027,4.027,0,0,1,482.724,59.955Z" transform="translate(-2280.859 2439.185)" fill="#ee3c40" stroke="#562729" stroke-width="0.5"/>
    <path id="Path_3681" data-name="Path 3681" d="M482.724,82.915a4.065,4.065,0,1,1-1.166-2.889A4.027,4.027,0,0,1,482.724,82.915Z" transform="translate(-2280.859 2428.528)" fill="#ee3c40" stroke="#562729" stroke-width="0.5"/>
    <path id="Path_3682" data-name="Path 3682" d="M482.723,105.864a4.052,4.052,0,1,1-1.166-2.886A4.027,4.027,0,0,1,482.723,105.864Z" transform="translate(-2280.858 2417.871)" fill="#fbd5d5" stroke="#562729" stroke-width="0.5"/>
    <path id="Path_3683" data-name="Path 3683" d="M482.724,128.815a4.068,4.068,0,1,1-1.167-2.889A4.027,4.027,0,0,1,482.724,128.815Z" transform="translate(-2280.859 2407.224)" fill="#f3777a" stroke="#562729" stroke-width="0.5"/>
    <path id="Path_3684" data-name="Path 3684" d="M482.723,151.769a4.053,4.053,0,1,1-1.164-2.89,4.027,4.027,0,0,1,1.164,2.89Z" transform="translate(-2280.859 2396.566)" fill="#ee3c40" stroke="#562729" stroke-width="0.5"/>
    <path id="Path_3685" data-name="Path 3685" d="M482.723,174.719a4.061,4.061,0,1,1-1.167-2.887A4.027,4.027,0,0,1,482.723,174.719Z" transform="translate(-2280.859 2385.915)" fill="#f3777a" stroke="#562729" stroke-width="0.5"/>
    <path id="Path_3686" data-name="Path 3686" d="M505.28,59.955a4.065,4.065,0,1,1-1.168-2.891,4.036,4.036,0,0,1,1.168,2.891Z" transform="translate(-2291.321 2439.185)" fill="#f3777a" stroke="#562729" stroke-width="0.5"/>
    <path id="Path_3687" data-name="Path 3687" d="M505.28,82.915a4.035,4.035,0,1,1-4.04-4.1A4.036,4.036,0,0,1,505.28,82.915Z" transform="translate(-2291.321 2428.528)" fill="#f3777a" stroke="#562729" stroke-width="0.5"/>
    <path id="Path_3688" data-name="Path 3688" d="M505.279,105.864a4.056,4.056,0,1,1-1.169-2.887,4.035,4.035,0,0,1,1.169,2.887Z" transform="translate(-2291.321 2417.871)" fill="#fbd5d5" stroke="#562729" stroke-width="0.5"/>
    <path id="Path_3689" data-name="Path 3689" d="M505.28,128.815a4.035,4.035,0,1,1-4.04-4.1A4.036,4.036,0,0,1,505.28,128.815Z" transform="translate(-2291.321 2407.224)" fill="#f3777a" stroke="#562729" stroke-width="0.5"/>
    <path id="Path_3690" data-name="Path 3690" d="M505.279,151.769a4.057,4.057,0,1,1-1.167-2.89A4.035,4.035,0,0,1,505.279,151.769Z" transform="translate(-2291.321 2396.566)" fill="#ee3c40" stroke="#562729" stroke-width="0.5"/>
    <path id="Path_3691" data-name="Path 3691" d="M505.279,174.719a4.065,4.065,0,1,1-1.17-2.888,4.036,4.036,0,0,1,1.17,2.888Z" transform="translate(-2291.321 2385.915)" fill="#fbd5d5" stroke="#562729" stroke-width="0.5"/>
    <path id="Path_3692" data-name="Path 3692" d="M279.669,197.669a4.03,4.03,0,1,1-4.03-4.089A4.073,4.073,0,0,1,279.669,197.669Z" transform="translate(-2186.608 2375.257)" fill="#fbd5d5" stroke="#562729" stroke-width="0.5"/>
    <path id="Path_3693" data-name="Path 3693" d="M279.669,220.62a4.068,4.068,0,1,1-1.163-2.89,4.03,4.03,0,0,1,1.163,2.89Z" transform="translate(-2186.609 2364.614)" fill="#f3777a" stroke="#562729" stroke-width="0.5"/>
    <path id="Path_3694" data-name="Path 3694" d="M279.668,243.575a4.065,4.065,0,1,1-1.16-2.894A4.031,4.031,0,0,1,279.668,243.575Z" transform="translate(-2186.608 2353.963)" fill="#ee3c40" stroke="#562729" stroke-width="0.5"/>
    <path id="Path_3695" data-name="Path 3695" d="M279.669,266.514a4.03,4.03,0,1,1-4.03-4.094A4.073,4.073,0,0,1,279.669,266.514Z" transform="translate(-2186.608 2343.305)" fill="#ee3c40" stroke="#562729" stroke-width="0.5"/>
    <path id="Path_3696" data-name="Path 3696" d="M279.669,289.479a4.03,4.03,0,1,1-4.03-4.089A4.03,4.03,0,0,1,279.669,289.479Z" transform="translate(-2186.608 2332.644)" fill="#f3777a" stroke="#562729" stroke-width="0.5"/>
    <path id="Path_3697" data-name="Path 3697" d="M279.669,312.429a4.06,4.06,0,1,1-1.164-2.886,4.03,4.03,0,0,1,1.164,2.886Z" transform="translate(-2186.608 2321.996)" fill="#f3777a" stroke="#562729" stroke-width="0.5"/>
    <path id="Path_3698" data-name="Path 3698" d="M302.233,197.669a4.027,4.027,0,1,1-4.024-4.089,4.069,4.069,0,0,1,4.024,4.089Z" transform="translate(-2197.084 2375.257)" fill="#ee3c40" stroke="#562729" stroke-width="0.5"/>
    <path id="Path_3699" data-name="Path 3699" d="M302.233,220.62a4.063,4.063,0,1,1-1.16-2.89,4.028,4.028,0,0,1,1.16,2.89Z" transform="translate(-2197.083 2364.614)" fill="#f3777a" stroke="#562729" stroke-width="0.5"/>
    <path id="Path_3700" data-name="Path 3700" d="M302.233,243.575a4.061,4.061,0,1,1-1.157-2.894,4.028,4.028,0,0,1,1.157,2.894Z" transform="translate(-2197.084 2353.963)" fill="#fbd5d5" stroke="#562729" stroke-width="0.5"/>
    <path id="Path_3701" data-name="Path 3701" d="M302.233,266.514a4.027,4.027,0,1,1-4.024-4.094,4.069,4.069,0,0,1,4.024,4.094Z" transform="translate(-2197.083 2343.305)" fill="#ee3c40" stroke="#562729" stroke-width="0.5"/>
    <path id="Path_3702" data-name="Path 3702" d="M302.233,289.478a4.027,4.027,0,1,1-4.024-4.089A4.027,4.027,0,0,1,302.233,289.478Z" transform="translate(-2197.084 2332.644)" fill="#ee3c40" stroke="#562729" stroke-width="0.5"/>
    <path id="Path_3703" data-name="Path 3703" d="M302.233,312.429a4.055,4.055,0,1,1-1.161-2.885A4.027,4.027,0,0,1,302.233,312.429Z" transform="translate(-2197.084 2321.996)" fill="#ee3c40" stroke="#562729" stroke-width="0.5"/>
    <path id="Path_3704" data-name="Path 3704" d="M324.789,289.479a4.03,4.03,0,1,1-4.035-4.089A4.073,4.073,0,0,1,324.789,289.479Z" transform="translate(-2207.55 2332.644)" fill="#f3777a" stroke="#562729" stroke-width="0.5"/>
    <path id="Path_3705" data-name="Path 3705" d="M324.789,312.429a4.064,4.064,0,1,1-1.168-2.886,4.03,4.03,0,0,1,1.168,2.886Z" transform="translate(-2207.55 2321.996)" fill="#f3777a" stroke="#562729" stroke-width="0.5"/>
    <path id="Path_3706" data-name="Path 3706" d="M347.354,289.478a4.033,4.033,0,1,1-4.035-4.089A4.033,4.033,0,0,1,347.354,289.478Z" transform="translate(-2218.022 2332.644)" fill="#ee3c40" stroke="#562729" stroke-width="0.5"/>
    <path id="Path_3707" data-name="Path 3707" d="M347.354,312.429a4.064,4.064,0,1,1-1.167-2.886A4.033,4.033,0,0,1,347.354,312.429Z" transform="translate(-2218.022 2321.996)" fill="#fbd5d5" stroke="#562729" stroke-width="0.5"/>
    <path id="Path_3708" data-name="Path 3708" d="M369.923,289.479a4.027,4.027,0,1,1-4.035-4.089A4.073,4.073,0,0,1,369.923,289.479Z" transform="translate(-2228.502 2332.644)" fill="#ee3c40" stroke="#562729" stroke-width="0.5"/>
    <path id="Path_3709" data-name="Path 3709" d="M369.923,312.429a4.064,4.064,0,1,1-1.167-2.886A4.027,4.027,0,0,1,369.923,312.429Z" transform="translate(-2228.503 2321.996)" fill="#ee3c40" stroke="#562729" stroke-width="0.5"/>
    <path id="Path_3710" data-name="Path 3710" d="M392.473,289.478a4.027,4.027,0,1,1-4.03-4.089A4.028,4.028,0,0,1,392.473,289.478Z" transform="translate(-2238.969 2332.644)" fill="#ee3c40" stroke="#562729" stroke-width="0.5"/>
    <path id="Path_3711" data-name="Path 3711" d="M392.474,312.429a4.06,4.06,0,1,1-1.164-2.886,4.027,4.027,0,0,1,1.164,2.886Z" transform="translate(-2238.969 2321.996)" fill="#f3777a" stroke="#562729" stroke-width="0.5"/>
    <path id="Path_3712" data-name="Path 3712" d="M415.034,289.478A4.033,4.033,0,1,1,411,285.39,4.033,4.033,0,0,1,415.034,289.478Z" transform="translate(-2249.436 2332.644)" fill="#f3777a" stroke="#562729" stroke-width="0.5"/>
    <path id="Path_3713" data-name="Path 3713" d="M415.034,312.429a4.033,4.033,0,1,1-4.03-4.1A4.033,4.033,0,0,1,415.034,312.429Z" transform="translate(-2249.436 2321.996)" fill="#f3777a" stroke="#562729" stroke-width="0.5"/>
    <path id="Path_3714" data-name="Path 3714" d="M437.589,289.479a4.03,4.03,0,1,1-4.024-4.089A4.03,4.03,0,0,1,437.589,289.479Z" transform="translate(-2259.906 2332.644)" fill="#ee3c40" stroke="#562729" stroke-width="0.5"/>
    <path id="Path_3715" data-name="Path 3715" d="M437.589,312.429a4.055,4.055,0,1,1-1.161-2.885A4.03,4.03,0,0,1,437.589,312.429Z" transform="translate(-2259.907 2321.996)" fill="#ee3c40" stroke="#562729" stroke-width="0.5"/>
    <path id="Path_3716" data-name="Path 3716" d="M460.159,289.479a4.03,4.03,0,1,1-4.024-4.089A4.03,4.03,0,0,1,460.159,289.479Z" transform="translate(-2270.383 2332.644)" fill="#f3777a" stroke="#562729" stroke-width="0.5"/>
    <path id="Path_3717" data-name="Path 3717" d="M460.159,312.429A4.059,4.059,0,1,1,459,309.545,4.03,4.03,0,0,1,460.159,312.429Z" transform="translate(-2270.383 2321.996)" fill="#f3777a" stroke="#562729" stroke-width="0.5"/>
    <path id="Path_3718" data-name="Path 3718" d="M482.723,197.669a4.027,4.027,0,1,1-4.035-4.089A4.027,4.027,0,0,1,482.723,197.669Z" transform="translate(-2280.858 2375.257)" fill="#ee3c40" stroke="#562729" stroke-width="0.5"/>
    <path id="Path_3719" data-name="Path 3719" d="M482.723,220.62a4.062,4.062,0,1,1-1.163-2.894A4.028,4.028,0,0,1,482.723,220.62Z" transform="translate(-2280.858 2364.614)" fill="#f3777a" stroke="#562729" stroke-width="0.5"/>
    <path id="Path_3720" data-name="Path 3720" d="M482.723,243.575a4.059,4.059,0,1,1-1.16-2.9A4.028,4.028,0,0,1,482.723,243.575Z" transform="translate(-2280.858 2353.963)" fill="#f3777a" stroke="#562729" stroke-width="0.5"/>
    <path id="Path_3721" data-name="Path 3721" d="M482.723,266.514a4.027,4.027,0,1,1-4.035-4.094A4.027,4.027,0,0,1,482.723,266.514Z" transform="translate(-2280.858 2343.305)" fill="#f3777a" stroke="#562729" stroke-width="0.5"/>
    <path id="Path_3722" data-name="Path 3722" d="M482.723,289.479a4.06,4.06,0,1,1-1.17-2.881A4.027,4.027,0,0,1,482.723,289.479Z" transform="translate(-2280.858 2332.644)" fill="#ee3c40" stroke="#562729" stroke-width="0.5"/>
    <path id="Path_3723" data-name="Path 3723" d="M482.723,312.429a4.054,4.054,0,1,1-1.164-2.889A4.027,4.027,0,0,1,482.723,312.429Z" transform="translate(-2280.859 2321.996)" fill="#f3777a" stroke="#562729" stroke-width="0.5"/>
    <path id="Path_3724" data-name="Path 3724" d="M505.279,197.668a4.035,4.035,0,1,1-4.04-4.088,4.035,4.035,0,0,1,4.04,4.088Z" transform="translate(-2291.32 2375.257)" fill="#f3777a" stroke="#562729" stroke-width="0.5"/>
    <path id="Path_3725" data-name="Path 3725" d="M505.28,220.62a4.067,4.067,0,1,1-1.166-2.894A4.035,4.035,0,0,1,505.28,220.62Z" transform="translate(-2291.321 2364.614)" fill="#ee3c40" stroke="#562729" stroke-width="0.5"/>
    <path id="Path_3726" data-name="Path 3726" d="M505.28,243.575a4.064,4.064,0,1,1-1.164-2.9A4.035,4.035,0,0,1,505.28,243.575Z" transform="translate(-2291.322 2353.963)" fill="#f3777a" stroke="#562729" stroke-width="0.5"/>
    <path id="Path_3727" data-name="Path 3727" d="M505.279,266.514a4.035,4.035,0,1,1-4.04-4.094A4.036,4.036,0,0,1,505.279,266.514Z" transform="translate(-2291.321 2343.305)" fill="#f3777a" stroke="#562729" stroke-width="0.5"/>
    <path id="Path_3728" data-name="Path 3728" d="M505.279,289.479a4.035,4.035,0,1,1-4.04-4.089A4.035,4.035,0,0,1,505.279,289.479Z" transform="translate(-2291.32 2332.644)" fill="#ee3c40" stroke="#562729" stroke-width="0.5"/>
    <path id="Path_3729" data-name="Path 3729" d="M505.279,312.429a4.059,4.059,0,1,1-1.168-2.89A4.036,4.036,0,0,1,505.279,312.429Z" transform="translate(-2291.321 2321.996)" fill="#ee3c40" stroke="#562729" stroke-width="0.5"/>
    <g id="Group_3559" data-name="Group 3559" transform="translate(-1914.993 2647.818)">
      <path id="Path_3731" data-name="Path 3731" d="M271.207,343.089a2.326,2.326,0,0,0-2.511-1.733,2.787,2.787,0,0,0-2.086.778,2.012,2.012,0,0,0-.654,1.567,2.434,2.434,0,0,0,.664,1.728,5.879,5.879,0,0,0,1.816,1.219,9.419,9.419,0,0,1,1.775,1.1,2.029,2.029,0,0,1,.571,1.432,2.158,2.158,0,0,1-.5,1.4,2.266,2.266,0,0,1-3.793-.581l-.706.1a2.61,2.61,0,0,0,2.807,1.8,3.036,3.036,0,0,0,2.252-1.012,2.558,2.558,0,0,0,.7-1.785,2.6,2.6,0,0,0-.659-1.759,9.1,9.1,0,0,0-1.8-1.173,7.559,7.559,0,0,1-1.806-1.131,1.791,1.791,0,0,1-.566-1.37,1.556,1.556,0,0,1,.462-1.188,2.16,2.16,0,0,1,1.51-.581,1.861,1.861,0,0,1,1.842,1.266Z" transform="translate(-265.78 -341.351)" fill="#3f3b3c"/>
      <path id="Path_3732" data-name="Path 3732" d="M291.958,341.74h-.726v6.838c0,1.909-.384,2.963-2.075,2.963-1.65,0-2.049-1.079-2.049-2.963V341.74h-.726v6.823c0,2.532.778,3.518,2.776,3.518,2.055,0,2.807-1.017,2.807-3.518V341.74Z" transform="translate(-275.692 -341.538)" fill="#3f3b3c"/>
      <path id="Path_3733" data-name="Path 3733" d="M311.479,351.339H308.1v-9.6h-.726v10.143h4.109v-.545Z" transform="translate(-285.791 -341.538)" fill="#3f3b3c"/>
      <path id="Path_3734" data-name="Path 3734" d="M328.376,342.29h-2.4v9.593h-.732V342.29h-2.4v-.55h5.52v.55Z" transform="translate(-293.239 -341.538)" fill="#3f3b3c"/>
      <path id="Path_3735" data-name="Path 3735" d="M342.69,348.563l-.986,3.321h-.815l3.155-10.143h.918l3.165,10.143h-.82l-.991-3.321Zm2.636-3.372c-.265-.929-.534-1.826-.8-2.848h-.057c-.249,1.007-.508,1.93-.773,2.838l-.82,2.828h3.258Z" transform="translate(-301.919 -341.538)" fill="#3f3b3c"/>
      <path id="Path_3736" data-name="Path 3736" d="M369.368,351.095c-.062-1.629-.067-4.8-.067-9.355h.706v10.143h-1c-2.221-4.618-3.7-7.752-4.4-9.36h-.042c.047,1.614.052,4.773.052,9.36h-.706V341.74h1.017c2.221,4.561,3.7,7.736,4.4,9.355Z" transform="translate(-312.996 -341.538)" fill="#3f3b3c"/>
      <path id="Path_3737" data-name="Path 3737" d="M408.872,351.105c.524-1.665,1.593-4.742,3.2-9.365h1.105v10.143h-.69c0-4.69.005-7.861.052-9.51h-.042c-.529,1.634-1.608,4.753-3.274,9.51h-.737c-1.634-4.706-2.724-7.866-3.269-9.51h-.042c.052,1.65.057,4.815.057,9.51h-.69V341.74h1.105c1.6,4.649,2.672,7.7,3.2,9.365Z" transform="translate(-332.545 -341.538)" fill="#3f3b3c"/>
      <path id="Path_3738" data-name="Path 3738" d="M435.186,346.3v.555h-2.869v4.488h3.7v.55H431.59V341.75H435.9v.55h-3.585v4.005h2.869Z" transform="translate(-345.56 -341.542)" fill="#3f3b3c"/>
      <path id="Path_3739" data-name="Path 3739" d="M449.9,351.883V341.74h2.138c2.537,0,3.813,1.411,3.813,5.054,0,3.466-1.157,5.09-3.8,5.09Zm2.143-.55c2.065,0,3.056-1.359,3.056-4.524,0-3.129-.949-4.519-3.066-4.519h-1.4v9.043Z" transform="translate(-354.37 -341.538)" fill="#3f3b3c"/>
      <path id="Path_3740" data-name="Path 3740" d="M471.2,351.883V341.74h.737v10.143Z" transform="translate(-364.618 -341.538)" fill="#3f3b3c"/>
      <path id="Path_3741" data-name="Path 3741" d="M488.167,349.283c-.332,1.3-1.235,2.61-2.646,2.61a2.518,2.518,0,0,1-2.252-1.25,7.241,7.241,0,0,1-.908-4.037,7.453,7.453,0,0,1,.892-3.943,2.643,2.643,0,0,1,2.288-1.313c1.266,0,2.148.856,2.459,2.407l-.711.088c-.254-1.2-.8-1.961-1.759-1.961-1.2,0-2.439,1.053-2.439,4.742,0,3.736,1.193,4.727,2.413,4.727,1.121,0,1.733-1.24,1.946-2.19Z" transform="translate(-369.984 -341.35)" fill="#3f3b3c"/>
      <path id="Path_3742" data-name="Path 3742" d="M503.165,348.563l-.986,3.321h-.809l3.155-10.143h.918l3.165,10.143h-.82l-.991-3.321Zm2.641-3.372c-.27-.929-.534-1.826-.8-2.848h-.057c-.254,1.007-.508,1.93-.773,2.838l-.825,2.828h3.263Z" transform="translate(-379.135 -341.538)" fill="#3f3b3c"/>
    </g>
  </g>
</svg>
