<svg xmlns="http://www.w3.org/2000/svg" width="628.6" height="461.75" viewBox="0 0 628.6 461.75">
  <g id="Group_3563" data-name="Group 3563" transform="translate(-7496 -6994)">
    <path id="Path_3649" data-name="Path 3649" d="M322.27,215.97v54.87H462.65V209.62s-29.13-12.7-60.32-3.17C362.93,218.46,328.51,221.25,322.27,215.97Z" transform="translate(7401.69 6938.47)" fill="#fff"/>
    <path id="Path_3650" data-name="Path 3650" d="M286.65,63.51a7.521,7.521,0,1,1-7.52-7.66A7.587,7.587,0,0,1,286.65,63.51Z" transform="translate(7401.69 6938.47)" fill="#fff"/>
    <path id="Path_3651" data-name="Path 3651" d="M286.65,86.47a7.521,7.521,0,1,1-7.52-7.66A7.6,7.6,0,0,1,286.65,86.47Z" transform="translate(7401.69 6938.47)" fill="#fff"/>
    <path id="Path_3652" data-name="Path 3652" d="M286.65,109.41a7.521,7.521,0,1,1-7.52-7.64A7.572,7.572,0,0,1,286.65,109.41Z" transform="translate(7401.69 6938.47)" fill="#fff"/>
    <path id="Path_3653" data-name="Path 3653" d="M286.65,132.37a7.521,7.521,0,1,1-7.52-7.66A7.6,7.6,0,0,1,286.65,132.37Z" transform="translate(7401.69 6938.47)" fill="#fff"/>
    <path id="Path_3654" data-name="Path 3654" d="M286.65,155.32a7.521,7.521,0,1,1-7.52-7.65A7.574,7.574,0,0,1,286.65,155.32Z" transform="translate(7401.69 6938.47)" fill="#fff"/>
    <path id="Path_3655" data-name="Path 3655" d="M286.65,178.27a7.521,7.521,0,1,1-7.52-7.65A7.589,7.589,0,0,1,286.65,178.27Z" transform="translate(7401.69 6938.47)" fill="#fff"/>
    <path id="Path_3656" data-name="Path 3656" d="M309.21,63.51a7.516,7.516,0,1,1-7.51-7.66A7.579,7.579,0,0,1,309.21,63.51Z" transform="translate(7401.69 6938.47)" fill="#fff"/>
    <path id="Path_3657" data-name="Path 3657" d="M309.21,86.47a7.516,7.516,0,1,1-7.51-7.66A7.589,7.589,0,0,1,309.21,86.47Z" transform="translate(7401.69 6938.47)" fill="#fff"/>
    <path id="Path_3658" data-name="Path 3658" d="M309.21,109.41a7.516,7.516,0,1,1-7.51-7.64A7.564,7.564,0,0,1,309.21,109.41Z" transform="translate(7401.69 6938.47)" fill="#fff"/>
    <path id="Path_3659" data-name="Path 3659" d="M309.21,132.37a7.516,7.516,0,1,1-7.51-7.66A7.594,7.594,0,0,1,309.21,132.37Z" transform="translate(7401.69 6938.47)" fill="#fff"/>
    <path id="Path_3660" data-name="Path 3660" d="M309.21,155.32a7.516,7.516,0,1,1-7.51-7.65A7.565,7.565,0,0,1,309.21,155.32Z" transform="translate(7401.69 6938.47)" fill="#fff"/>
    <path id="Path_3661" data-name="Path 3661" d="M309.21,178.27a7.516,7.516,0,1,1-7.51-7.65A7.58,7.58,0,0,1,309.21,178.27Z" transform="translate(7401.69 6938.47)" fill="#fff"/>
    <path id="Path_3662" data-name="Path 3662" d="M331.77,63.51a7.521,7.521,0,1,1-7.53-7.66A7.6,7.6,0,0,1,331.77,63.51Z" transform="translate(7401.69 6938.47)" fill="#fff"/>
    <path id="Path_3663" data-name="Path 3663" d="M331.77,86.47a7.521,7.521,0,1,1-7.53-7.66A7.606,7.606,0,0,1,331.77,86.47Z" transform="translate(7401.69 6938.47)" fill="#fff"/>
    <path id="Path_3664" data-name="Path 3664" d="M331.77,109.41a7.521,7.521,0,1,1-7.53-7.64A7.58,7.58,0,0,1,331.77,109.41Z" transform="translate(7401.69 6938.47)" fill="#fff"/>
    <path id="Path_3665" data-name="Path 3665" d="M331.77,132.37a7.521,7.521,0,1,1-7.53-7.66A7.61,7.61,0,0,1,331.77,132.37Z" transform="translate(7401.69 6938.47)" fill="#fff"/>
    <path id="Path_3666" data-name="Path 3666" d="M331.77,155.32a7.521,7.521,0,1,1-7.53-7.65A7.582,7.582,0,0,1,331.77,155.32Z" transform="translate(7401.69 6938.47)" fill="#fff"/>
    <path id="Path_3667" data-name="Path 3667" d="M354.34,63.51a7.526,7.526,0,1,1-7.53-7.66A7.6,7.6,0,0,1,354.34,63.51Z" transform="translate(7401.69 6938.47)" fill="#fff"/>
    <path id="Path_3668" data-name="Path 3668" d="M354.34,86.47a7.526,7.526,0,1,1-7.53-7.66A7.606,7.606,0,0,1,354.34,86.47Z" transform="translate(7401.69 6938.47)" fill="#fff"/>
    <path id="Path_3669" data-name="Path 3669" d="M354.34,109.41a7.526,7.526,0,1,1-7.53-7.64A7.58,7.58,0,0,1,354.34,109.41Z" transform="translate(7401.69 6938.47)" fill="#fff"/>
    <path id="Path_3670" data-name="Path 3670" d="M354.34,132.37a7.526,7.526,0,1,1-7.53-7.66A7.61,7.61,0,0,1,354.34,132.37Z" transform="translate(7401.69 6938.47)" fill="#fff"/>
    <path id="Path_3671" data-name="Path 3671" d="M444.57,63.51a7.521,7.521,0,1,1-7.51-7.66A7.579,7.579,0,0,1,444.57,63.51Z" transform="translate(7401.69 6938.47)" fill="#fff"/>
    <path id="Path_3672" data-name="Path 3672" d="M444.57,86.47a7.521,7.521,0,1,1-7.51-7.66A7.589,7.589,0,0,1,444.57,86.47Z" transform="translate(7401.69 6938.47)" fill="#fff"/>
    <path id="Path_3673" data-name="Path 3673" d="M444.57,109.41a7.521,7.521,0,1,1-7.51-7.64A7.564,7.564,0,0,1,444.57,109.41Z" transform="translate(7401.69 6938.47)" fill="#fff"/>
    <path id="Path_3674" data-name="Path 3674" d="M444.57,132.37a7.521,7.521,0,1,1-7.51-7.66A7.594,7.594,0,0,1,444.57,132.37Z" transform="translate(7401.69 6938.47)" fill="#fff"/>
    <path id="Path_3675" data-name="Path 3675" d="M467.14,63.51a7.521,7.521,0,1,1-7.51-7.66A7.585,7.585,0,0,1,467.14,63.51Z" transform="translate(7401.69 6938.47)" fill="#fff"/>
    <path id="Path_3676" data-name="Path 3676" d="M467.14,86.47a7.521,7.521,0,1,1-7.51-7.66A7.6,7.6,0,0,1,467.14,86.47Z" transform="translate(7401.69 6938.47)" fill="#fff"/>
    <path id="Path_3677" data-name="Path 3677" d="M467.14,109.41a7.521,7.521,0,1,1-7.51-7.64A7.57,7.57,0,0,1,467.14,109.41Z" transform="translate(7401.69 6938.47)" fill="#fff"/>
    <path id="Path_3678" data-name="Path 3678" d="M467.14,132.37a7.521,7.521,0,1,1-7.51-7.66A7.6,7.6,0,0,1,467.14,132.37Z" transform="translate(7401.69 6938.47)" fill="#fff"/>
    <path id="Path_3679" data-name="Path 3679" d="M467.14,155.32a7.521,7.521,0,1,1-7.51-7.65A7.572,7.572,0,0,1,467.14,155.32Z" transform="translate(7401.69 6938.47)" fill="#fff"/>
    <path id="Path_3680" data-name="Path 3680" d="M489.7,63.51a7.516,7.516,0,1,1-7.53-7.66A7.576,7.576,0,0,1,489.7,63.51Z" transform="translate(7401.69 6938.47)" fill="#fff"/>
    <path id="Path_3681" data-name="Path 3681" d="M489.7,86.47a7.516,7.516,0,1,1-7.53-7.66A7.587,7.587,0,0,1,489.7,86.47Z" transform="translate(7401.69 6938.47)" fill="#fff"/>
    <path id="Path_3682" data-name="Path 3682" d="M489.7,109.41a7.516,7.516,0,1,1-7.53-7.64A7.561,7.561,0,0,1,489.7,109.41Z" transform="translate(7401.69 6938.47)" fill="#fff"/>
    <path id="Path_3683" data-name="Path 3683" d="M489.7,132.37a7.516,7.516,0,1,1-7.53-7.66A7.591,7.591,0,0,1,489.7,132.37Z" transform="translate(7401.69 6938.47)" fill="#fff"/>
    <path id="Path_3684" data-name="Path 3684" d="M489.7,155.32a7.516,7.516,0,1,1-7.53-7.65A7.563,7.563,0,0,1,489.7,155.32Z" transform="translate(7401.69 6938.47)" fill="#fff"/>
    <path id="Path_3685" data-name="Path 3685" d="M489.7,178.27a7.516,7.516,0,1,1-7.53-7.65A7.578,7.578,0,0,1,489.7,178.27Z" transform="translate(7401.69 6938.47)" fill="#fff"/>
    <path id="Path_3686" data-name="Path 3686" d="M512.27,63.51a7.531,7.531,0,1,1-7.54-7.66A7.585,7.585,0,0,1,512.27,63.51Z" transform="translate(7401.69 6938.47)" fill="#fff"/>
    <path id="Path_3687" data-name="Path 3687" d="M512.27,86.47a7.531,7.531,0,1,1-7.54-7.66A7.6,7.6,0,0,1,512.27,86.47Z" transform="translate(7401.69 6938.47)" fill="#fff"/>
    <path id="Path_3688" data-name="Path 3688" d="M512.27,109.41a7.531,7.531,0,1,1-7.54-7.64A7.57,7.57,0,0,1,512.27,109.41Z" transform="translate(7401.69 6938.47)" fill="#fff"/>
    <path id="Path_3689" data-name="Path 3689" d="M512.27,132.37a7.531,7.531,0,1,1-7.54-7.66A7.6,7.6,0,0,1,512.27,132.37Z" transform="translate(7401.69 6938.47)" fill="#fff"/>
    <path id="Path_3690" data-name="Path 3690" d="M512.27,155.32a7.531,7.531,0,1,1-7.54-7.65A7.571,7.571,0,0,1,512.27,155.32Z" transform="translate(7401.69 6938.47)" fill="#fff"/>
    <path id="Path_3691" data-name="Path 3691" d="M512.27,178.27a7.531,7.531,0,1,1-7.54-7.65A7.586,7.586,0,0,1,512.27,178.27Z" transform="translate(7401.69 6938.47)" fill="#fff"/>
    <path id="Path_3692" data-name="Path 3692" d="M286.65,201.21a7.521,7.521,0,1,1-7.52-7.63A7.6,7.6,0,0,1,286.65,201.21Z" transform="translate(7401.69 6938.47)" fill="#fff"/>
    <path id="Path_3693" data-name="Path 3693" d="M286.65,224.18a7.521,7.521,0,1,1-7.52-7.67A7.591,7.591,0,0,1,286.65,224.18Z" transform="translate(7401.69 6938.47)" fill="#fff"/>
    <path id="Path_3694" data-name="Path 3694" d="M286.65,247.14a7.522,7.522,0,1,1-7.52-7.68A7.587,7.587,0,0,1,286.65,247.14Z" transform="translate(7401.69 6938.47)" fill="#fff"/>
    <path id="Path_3695" data-name="Path 3695" d="M286.65,270.06a7.521,7.521,0,1,1-7.52-7.64A7.6,7.6,0,0,1,286.65,270.06Z" transform="translate(7401.69 6938.47)" fill="#fff"/>
    <path id="Path_3696" data-name="Path 3696" d="M286.65,293.02a7.521,7.521,0,1,1-7.52-7.63A7.587,7.587,0,0,1,286.65,293.02Z" transform="translate(7401.69 6938.47)" fill="#fff"/>
    <path id="Path_3697" data-name="Path 3697" d="M286.65,315.98a7.521,7.521,0,1,1-7.52-7.65A7.576,7.576,0,0,1,286.65,315.98Z" transform="translate(7401.69 6938.47)" fill="#fff"/>
    <path id="Path_3698" data-name="Path 3698" d="M309.21,201.21a7.516,7.516,0,1,1-7.51-7.63A7.594,7.594,0,0,1,309.21,201.21Z" transform="translate(7401.69 6938.47)" fill="#fff"/>
    <path id="Path_3699" data-name="Path 3699" d="M309.21,224.18a7.517,7.517,0,1,1-7.51-7.67A7.583,7.583,0,0,1,309.21,224.18Z" transform="translate(7401.69 6938.47)" fill="#fff"/>
    <path id="Path_3700" data-name="Path 3700" d="M309.21,247.14a7.517,7.517,0,1,1-7.51-7.68A7.578,7.578,0,0,1,309.21,247.14Z" transform="translate(7401.69 6938.47)" fill="#fff"/>
    <path id="Path_3701" data-name="Path 3701" d="M309.21,270.06a7.516,7.516,0,1,1-7.51-7.64A7.594,7.594,0,0,1,309.21,270.06Z" transform="translate(7401.69 6938.47)" fill="#fff"/>
    <path id="Path_3702" data-name="Path 3702" d="M309.21,293.02a7.516,7.516,0,1,1-7.51-7.63A7.579,7.579,0,0,1,309.21,293.02Z" transform="translate(7401.69 6938.47)" fill="#fff"/>
    <path id="Path_3703" data-name="Path 3703" d="M309.21,315.98a7.516,7.516,0,1,1-7.51-7.65A7.568,7.568,0,0,1,309.21,315.98Z" transform="translate(7401.69 6938.47)" fill="#fff"/>
    <path id="Path_3704" data-name="Path 3704" d="M331.77,293.02a7.521,7.521,0,1,1-7.53-7.63A7.6,7.6,0,0,1,331.77,293.02Z" transform="translate(7401.69 6938.47)" fill="#fff"/>
    <path id="Path_3705" data-name="Path 3705" d="M331.77,315.98a7.521,7.521,0,1,1-7.53-7.65A7.584,7.584,0,0,1,331.77,315.98Z" transform="translate(7401.69 6938.47)" fill="#fff"/>
    <path id="Path_3706" data-name="Path 3706" d="M354.34,293.02a7.526,7.526,0,1,1-7.53-7.63A7.6,7.6,0,0,1,354.34,293.02Z" transform="translate(7401.69 6938.47)" fill="#fff"/>
    <path id="Path_3707" data-name="Path 3707" d="M354.34,315.98a7.526,7.526,0,1,1-7.53-7.65A7.584,7.584,0,0,1,354.34,315.98Z" transform="translate(7401.69 6938.47)" fill="#fff"/>
    <path id="Path_3708" data-name="Path 3708" d="M376.9,293.02a7.516,7.516,0,1,1-7.53-7.63A7.6,7.6,0,0,1,376.9,293.02Z" transform="translate(7401.69 6938.47)" fill="#fff"/>
    <path id="Path_3709" data-name="Path 3709" d="M376.9,315.98a7.516,7.516,0,1,1-7.53-7.65A7.584,7.584,0,0,1,376.9,315.98Z" transform="translate(7401.69 6938.47)" fill="#fff"/>
    <path id="Path_3710" data-name="Path 3710" d="M399.45,293.02a7.516,7.516,0,1,1-7.52-7.63A7.587,7.587,0,0,1,399.45,293.02Z" transform="translate(7401.69 6938.47)" fill="#fff"/>
    <path id="Path_3711" data-name="Path 3711" d="M399.45,315.98a7.516,7.516,0,1,1-7.52-7.65A7.576,7.576,0,0,1,399.45,315.98Z" transform="translate(7401.69 6938.47)" fill="#fff"/>
    <path id="Path_3712" data-name="Path 3712" d="M422.02,293.02a7.526,7.526,0,1,1-7.52-7.63A7.593,7.593,0,0,1,422.02,293.02Z" transform="translate(7401.69 6938.47)" fill="#fff"/>
    <path id="Path_3713" data-name="Path 3713" d="M422.02,315.98a7.526,7.526,0,1,1-7.52-7.65A7.582,7.582,0,0,1,422.02,315.98Z" transform="translate(7401.69 6938.47)" fill="#fff"/>
    <path id="Path_3714" data-name="Path 3714" d="M444.57,293.02a7.521,7.521,0,1,1-7.51-7.63A7.579,7.579,0,0,1,444.57,293.02Z" transform="translate(7401.69 6938.47)" fill="#fff"/>
    <path id="Path_3715" data-name="Path 3715" d="M444.57,315.98a7.521,7.521,0,1,1-7.51-7.65A7.568,7.568,0,0,1,444.57,315.98Z" transform="translate(7401.69 6938.47)" fill="#fff"/>
    <path id="Path_3716" data-name="Path 3716" d="M467.14,293.02a7.521,7.521,0,1,1-7.51-7.63A7.585,7.585,0,0,1,467.14,293.02Z" transform="translate(7401.69 6938.47)" fill="#fff"/>
    <path id="Path_3717" data-name="Path 3717" d="M467.14,315.98a7.521,7.521,0,1,1-7.51-7.65A7.574,7.574,0,0,1,467.14,315.98Z" transform="translate(7401.69 6938.47)" fill="#fff"/>
    <path id="Path_3718" data-name="Path 3718" d="M489.7,201.21a7.516,7.516,0,1,1-7.53-7.63A7.591,7.591,0,0,1,489.7,201.21Z" transform="translate(7401.69 6938.47)" fill="#fff"/>
    <path id="Path_3719" data-name="Path 3719" d="M489.7,224.18a7.517,7.517,0,1,1-7.53-7.67A7.58,7.58,0,0,1,489.7,224.18Z" transform="translate(7401.69 6938.47)" fill="#fff"/>
    <path id="Path_3720" data-name="Path 3720" d="M489.7,247.14a7.517,7.517,0,1,1-7.53-7.68A7.576,7.576,0,0,1,489.7,247.14Z" transform="translate(7401.69 6938.47)" fill="#fff"/>
    <path id="Path_3721" data-name="Path 3721" d="M489.7,270.06a7.516,7.516,0,1,1-7.53-7.64A7.591,7.591,0,0,1,489.7,270.06Z" transform="translate(7401.69 6938.47)" fill="#fff"/>
    <path id="Path_3722" data-name="Path 3722" d="M489.7,293.02a7.516,7.516,0,1,1-7.53-7.63A7.576,7.576,0,0,1,489.7,293.02Z" transform="translate(7401.69 6938.47)" fill="#fff"/>
    <path id="Path_3723" data-name="Path 3723" d="M489.7,315.98a7.516,7.516,0,1,1-7.53-7.65A7.565,7.565,0,0,1,489.7,315.98Z" transform="translate(7401.69 6938.47)" fill="#fff"/>
    <path id="Path_3724" data-name="Path 3724" d="M512.27,201.21a7.531,7.531,0,1,1-7.54-7.63A7.6,7.6,0,0,1,512.27,201.21Z" transform="translate(7401.69 6938.47)" fill="#fff"/>
    <path id="Path_3725" data-name="Path 3725" d="M512.27,224.18a7.531,7.531,0,1,1-7.54-7.67A7.589,7.589,0,0,1,512.27,224.18Z" transform="translate(7401.69 6938.47)" fill="#fff"/>
    <path id="Path_3726" data-name="Path 3726" d="M512.27,247.14a7.531,7.531,0,1,1-7.54-7.68A7.584,7.584,0,0,1,512.27,247.14Z" transform="translate(7401.69 6938.47)" fill="#fff"/>
    <path id="Path_3727" data-name="Path 3727" d="M512.27,270.06a7.531,7.531,0,1,1-7.54-7.64A7.6,7.6,0,0,1,512.27,270.06Z" transform="translate(7401.69 6938.47)" fill="#fff"/>
    <path id="Path_3728" data-name="Path 3728" d="M512.27,293.02a7.531,7.531,0,1,1-7.54-7.63A7.585,7.585,0,0,1,512.27,293.02Z" transform="translate(7401.69 6938.47)" fill="#fff"/>
    <path id="Path_3729" data-name="Path 3729" d="M512.27,315.98a7.531,7.531,0,1,1-7.54-7.65A7.574,7.574,0,0,1,512.27,315.98Z" transform="translate(7401.69 6938.47)" fill="#fff"/>
    <path id="Path_3730" data-name="Path 3730" d="M551.46,73.83h-2.35V58.14h-.08l-5.12,15.69h-1.39l-4.99-15.69h-.06V73.83h-2.36V55.54h3.81l4.3,12.9,4.45-12.9h3.78V73.83ZM532.45,58.14h-4.79V73.83h-2.5V58.14h-4.84V55.53h12.13Z" transform="translate(7401.69 6938.47)" fill="#fff"/>
    <g id="Group_3559" data-name="Group 3559" transform="translate(7401.69 6938.47)">
      <path id="Path_3731" data-name="Path 3731" d="M276.24,344.7c-.47-1.78-1.87-3.34-4.84-3.34a5.371,5.371,0,0,0-4.02,1.5,3.878,3.878,0,0,0-1.26,3.02,4.69,4.69,0,0,0,1.28,3.33,11.329,11.329,0,0,0,3.5,2.35,18.154,18.154,0,0,1,3.42,2.12,3.911,3.911,0,0,1,1.1,2.76,4.16,4.16,0,0,1-.97,2.69,4.367,4.367,0,0,1-7.31-1.12l-1.36.2c.64,1.96,2.19,3.46,5.41,3.46a5.852,5.852,0,0,0,4.34-1.95,4.93,4.93,0,0,0,1.34-3.44,5.009,5.009,0,0,0-1.27-3.39,17.544,17.544,0,0,0-3.47-2.26,14.57,14.57,0,0,1-3.48-2.18,3.452,3.452,0,0,1-1.09-2.64,3,3,0,0,1,.89-2.29,4.164,4.164,0,0,1,2.91-1.12,3.587,3.587,0,0,1,3.55,2.44Z" fill="#fff"/>
      <path id="Path_3732" data-name="Path 3732" d="M297.13,341.74h-1.4v13.18c0,3.68-.74,5.71-4,5.71-3.18,0-3.95-2.08-3.95-5.71V341.74h-1.4v13.15c0,4.88,1.5,6.78,5.35,6.78,3.96,0,5.41-1.96,5.41-6.78V341.74Z" fill="#fff"/>
      <path id="Path_3733" data-name="Path 3733" d="M315.29,360.24h-6.52v-18.5h-1.4v19.55h7.92v-1.05Z" fill="#fff"/>
      <path id="Path_3734" data-name="Path 3734" d="M333.5,342.8h-4.62v18.49h-1.41V342.8h-4.62v-1.06h10.64v1.06Z" fill="#fff"/>
      <path id="Path_3735" data-name="Path 3735" d="M344.36,354.89l-1.9,6.4h-1.57l6.08-19.55h1.77l6.1,19.55h-1.58l-1.91-6.4Zm5.08-6.5c-.51-1.79-1.03-3.52-1.54-5.49h-.11c-.48,1.94-.98,3.72-1.49,5.47l-1.58,5.45H351Z" fill="#fff"/>
      <path id="Path_3736" data-name="Path 3736" d="M374.43,359.77c-.12-3.14-.13-9.25-.13-18.03h1.36v19.55h-1.93c-4.28-8.9-7.14-14.94-8.48-18.04h-.08c.09,3.11.1,9.2.1,18.04h-1.36V341.74h1.96c4.28,8.79,7.14,14.91,8.49,18.03Z" fill="#fff"/>
      <path id="Path_3737" data-name="Path 3737" d="M412.89,359.79c1.01-3.21,3.07-9.14,6.16-18.05h2.13v19.55h-1.33c0-9.04.01-15.15.1-18.33h-.08c-1.02,3.15-3.1,9.16-6.31,18.33h-1.42c-3.15-9.07-5.25-15.16-6.3-18.33h-.08c.1,3.18.11,9.28.11,18.33h-1.33V341.74h2.13c3.09,8.96,5.15,14.85,6.16,18.05Z" fill="#fff"/>
      <path id="Path_3738" data-name="Path 3738" d="M438.52,350.52v1.07h-5.53v8.65h7.14v1.06h-8.54V341.75h8.31v1.06h-6.91v7.72h5.53Z" fill="#fff"/>
      <path id="Path_3739" data-name="Path 3739" d="M449.9,361.29V341.74h4.12c4.89,0,7.35,2.72,7.35,9.74,0,6.68-2.23,9.81-7.32,9.81Zm4.13-1.06c3.98,0,5.89-2.62,5.89-8.72,0-6.03-1.83-8.71-5.91-8.71h-2.69v17.43Z" fill="#fff"/>
      <path id="Path_3740" data-name="Path 3740" d="M471.2,361.29V341.74h1.42v19.55Z" fill="#fff"/>
      <path id="Path_3741" data-name="Path 3741" d="M493.56,356.64c-.64,2.51-2.38,5.03-5.1,5.03a4.852,4.852,0,0,1-4.34-2.41c-1.1-1.64-1.75-4.14-1.75-7.78a14.367,14.367,0,0,1,1.72-7.6,5.094,5.094,0,0,1,4.41-2.53c2.44,0,4.14,1.65,4.74,4.64l-1.37.17c-.49-2.31-1.54-3.78-3.39-3.78-2.31,0-4.7,2.03-4.7,9.14,0,7.2,2.3,9.11,4.65,9.11,2.16,0,3.34-2.39,3.75-4.22Z" fill="#fff"/>
      <path id="Path_3742" data-name="Path 3742" d="M504.83,354.89l-1.9,6.4h-1.56l6.08-19.55h1.77l6.1,19.55h-1.58l-1.91-6.4Zm5.09-6.5c-.52-1.79-1.03-3.52-1.54-5.49h-.11c-.49,1.94-.98,3.72-1.49,5.47l-1.59,5.45h6.29Z" fill="#fff"/>
    </g>
    <g id="Group_3561" data-name="Group 3561" transform="translate(7401.69 6938.47)">
      <path id="Path_3743" data-name="Path 3743" d="M143.58,422.72a4.587,4.587,0,0,0,4.42-4.87c0-2.12-1.51-4.6-3.99-4.6a5.026,5.026,0,0,0-4.8,4.87A4.36,4.36,0,0,0,143.58,422.72Z" fill="#fff"/>
      <path id="Path_3744" data-name="Path 3744" d="M132.75,422.91a4.648,4.648,0,0,0,4.51-4.79,4.175,4.175,0,0,0-4.35-4.45,4.546,4.546,0,0,0-4.42,4.63C128.49,420.16,130.15,422.91,132.75,422.91Z" fill="#fff"/>
      <path id="Path_3745" data-name="Path 3745" d="M172.41,452.82a4.147,4.147,0,0,0-4.25,4.42c0,1.96,1.5,4.54,4.16,4.54,2.48,0,4.18-1.86,4.18-4.61C176.5,454.95,175.5,452.82,172.41,452.82Z" fill="#fff"/>
      <path id="Path_3746" data-name="Path 3746" d="M173.4,446.35V427.61c-4.09,3.38-8.09,2.13-8.09,6.74v7.46H149.96V424.05c-3.11,3.29-5.42,1.69-7.81,5.16-6.83,0-12.96,5.76-12.96,13.83v7.11h39.5C170.99,450.16,173.4,448.47,173.4,446.35Zm-31.87-4.53h-4.45c-.08-.07-.1-.04-.1-.01a5.278,5.278,0,0,0,.1-.88c0-1.87,2.33-4.09,4.45-4.09Z" fill="#fff"/>
      <path id="Path_3747" data-name="Path 3747" d="M162.47,452.55a4.717,4.717,0,0,0-4.88,4.69,4.406,4.406,0,0,0,4.62,4.54c2.31,0,3.72-2.58,3.72-4.61C165.94,455.31,164.6,452.55,162.47,452.55Z" fill="#fff"/>
      <path id="Path_3748" data-name="Path 3748" d="M190.6,427.17c2.03,0,3.64-2.76,3.64-4.52a4.248,4.248,0,0,0-4.27-4.44,4.579,4.579,0,0,0-4.25,4.44A4.526,4.526,0,0,0,190.6,427.17Z" fill="#fff"/>
      <path id="Path_3749" data-name="Path 3749" d="M241.18,429.12H228.24c-.45,0-4.45.26-4.45-1.78,0-1.51,11.81-8.78,14.01-10.46l-.35-2.39c-6.12,3-12.24,6.03-18.45,9.14-5.15,2.57-10.93,5.06-15.99,7.99-1.94,1.16-1.59,1.95-1.59,2.57v3.02h36.93c2.03,0,3.99.89,3.99,3.01v1.61h-48.7V431.35a28.1,28.1,0,0,1-5.69,3.11c-.99.53-2.67,2.39-2.67,3.37v16.16h-4.17v3.1c0,2.49,3.29,5.15,4.97,5.15h2.41c3,0,5.15-3.47,5.15-5.15v-6.92h52.79a4.293,4.293,0,0,0,4.27-4.54v-6.75C250.7,434.63,246.43,429.12,241.18,429.12Z" fill="#fff"/>
      <path id="Path_3750" data-name="Path 3750" d="M306.68,409.95v31.87H296.66c-.98-1.61-1.25-2.94-3.72-4.27-1.42-.79-3.91-2.13-4.64-3.82-1.76,2.49-4.32,3.29-6.47,4.97a14.868,14.868,0,0,0-2.29,3.12H268.9V431.34a28.135,28.135,0,0,1-5.7,3.11c-.95.53-2.66,2.39-2.66,3.37v16.16h-4.17v3.1c0,2.49,3.29,5.15,4.97,5.15h2.42c2.99,0,5.15-3.47,5.15-5.15v-6.92h10.64c3.29,4.97,6.65,5.5,9.32,5.5,2.38,0,6.3-2.32,7.8-5.5h14.1c2.48,0,4.09-1.88,4.09-4.71V402.59c-.87.89-1.68,1.96-2.38,2.66C311.76,405.87,306.68,407.47,306.68,409.95Zm-18.71,38.52a2.824,2.824,0,0,1-2.66-2.66,2.869,2.869,0,0,1,2.82-2.66,2.756,2.756,0,0,1,2.66,2.57A2.96,2.96,0,0,1,287.97,448.47Z" fill="#fff"/>
      <path id="Path_3751" data-name="Path 3751" d="M320.7,409.85v40.31h8.24V403.65C326.37,406.49,320.7,406.93,320.7,409.85Z" fill="#fff"/>
      <path id="Path_3752" data-name="Path 3752" d="M365.26,442.53v6.22c0,2.75-2.39,5.32-4.34,5.32a5.192,5.192,0,0,1-5.15-5.32V439.6h-1.6c-1.94,0-6.64,3.64-6.64,7.37v3.9c0,5.6,5.06,11.72,13.4,11.72,7.89,0,12.78-5.77,12.78-13.84V434.37C368.8,438.7,365.26,437.2,365.26,442.53Z" fill="#fff"/>
      <path id="Path_3753" data-name="Path 3753" d="M360.56,436.92a4.476,4.476,0,0,0,.1-8.95,4.726,4.726,0,0,0-4.44,4.61A4.33,4.33,0,0,0,360.56,436.92Z" fill="#fff"/>
      <path id="Path_3754" data-name="Path 3754" d="M492.89,434.98v6.84h-3.31V430.91c-2.21,1.05-5.33,1.41-6.49,3.1a4.146,4.146,0,0,0-.78,1.59v6.22H479.2v-7.19c-1.94,0-7.27,1.69-7.27,4.7v2.49h-9.52V402.58c-.87.89-1.59,1.96-2.31,2.66-.7.62-5.75,2.23-5.75,4.7v31.87H443.86v-4c0-4.43-4.54-9.14-9.68-9.14H414.75a8,8,0,0,0-6.92,3.28V403.73c-1.6,1.87-3.2,2.13-4.63,3.03-.78.43-3.99.79-3.99,2.73v32.32H387.42V410.74c0-3.55-3.65-3.99-6.39-6.21-.79-.54-1.42-1.77-2.21-2.31v43.39c0,2.14,1.84,4.54,3.72,4.54H497.1c1.16,0,3.12-1.78,3.12-3.57V427.42C497.04,430.82,492.89,429.48,492.89,434.98Zm-57.34,6.84H407.86v-4.8h24.31c1.78,0,3.39,1.33,3.39,2.85v1.95Z" fill="#fff"/>
      <path id="Path_3755" data-name="Path 3755" d="M543.29,426.99c2.46,0,4.17-1.69,4.17-4.44a4.25,4.25,0,0,0-4.17-4.52c-2.49,0-4.19,2.85-4.19,4.69C539.1,424.95,540.18,426.99,543.29,426.99Z" fill="#fff"/>
      <path id="Path_3756" data-name="Path 3756" d="M532.46,427.27c2.58,0,4.25-1.78,4.25-4.55a4.142,4.142,0,0,0-4.07-4.42c-2.32,0-4.45,2.57-4.45,4.69C528.19,424.69,530.04,427.27,532.46,427.27Z" fill="#fff"/>
      <path id="Path_3757" data-name="Path 3757" d="M545.96,430.82c-1.16.79-1.6,2.2-1.6,3.99v6.82H527.75v-10.2c-1.6,2.3-7.97,3.02-7.97,5.49v9.42c0,2.03,1.76,3.81,5.21,3.81h22.8c1.44,0,4.44-1.69,4.44-3.47V427.42C550.46,429.57,547.62,429.74,545.96,430.82Z" fill="#fff"/>
      <path id="Path_3758" data-name="Path 3758" d="M557.57,409.85v40.31h8.26V403.65C563.24,406.49,557.57,406.93,557.57,409.85Z" fill="#fff"/>
      <path id="Path_3759" data-name="Path 3759" d="M594.04,453.88a4.448,4.448,0,0,0-4.53,4.26,4.673,4.673,0,0,0,4.61,4.7,4.453,4.453,0,0,0,4.18-4.44C598.3,456.01,597.06,453.88,594.04,453.88Z" fill="#fff"/>
      <path id="Path_3760" data-name="Path 3760" d="M626.44,425.22c2.3,0,3.91-2.13,3.91-4.52,0-2.06-1.33-4.7-4.1-4.7-2.92,0-4.43,3-4.43,4.7A4.556,4.556,0,0,0,626.44,425.22Z" fill="#fff"/>
      <path id="Path_3761" data-name="Path 3761" d="M615.71,425.22c2.29,0,3.9-2.67,3.9-4.7,0-1.79-1.08-4.52-4.18-4.52a4.3,4.3,0,0,0-4.36,4.6A4.575,4.575,0,0,0,615.71,425.22Z" fill="#fff"/>
      <path id="Path_3762" data-name="Path 3762" d="M645.94,422.72c2.42,0,4.26-2.66,4.26-4.87,0-1.85-2.05-4.51-3.81-4.51a4.885,4.885,0,0,0-4.97,4.87A4.647,4.647,0,0,0,645.94,422.72Z" fill="#fff"/>
      <path id="Path_3763" data-name="Path 3763" d="M682.26,428.6c-3.84.53-8.34,1.69-11.64,6.21a16.782,16.782,0,0,0-2.3,7.01h-7.9c-7.72-4.53-6.38-14.47-15.44-14.47a8.092,8.092,0,0,0-4.36,1.16v8.52a11.741,11.741,0,0,1,2.49-1.24,2.84,2.84,0,0,1,1.6.26,39.867,39.867,0,0,1,4.41,5.78H627.05V427.45c-2.31,2.05-5.24,2.76-6.47,3.55a3.544,3.544,0,0,0-1.78,2.66v8.17H604.68V427.62c-2.84,2.93-5.68,2.49-7.17,4.44a3.836,3.836,0,0,0-.99,2.49v7.28H583.93V431.35a27.618,27.618,0,0,1-5.7,3.11c-.96.53-2.66,2.39-2.66,3.37v16.16H571.4v3.1c0,2.49,3.29,5.15,4.98,5.15h2.41c2.99,0,5.14-3.47,5.14-5.15v-6.92h99.65c2.74,0,5.15-1.15,5.15-4.08V426.03A17.918,17.918,0,0,1,682.26,428.6Zm-1.61,13.22H676.3v-.98c0-1.59,1.96-3.64,3.38-3.64h.98v4.62Z" fill="#fff"/>
    </g>
    <g id="Group_3562" data-name="Group 3562" transform="translate(7401.69 6938.47)">
      <path id="Path_3764" data-name="Path 3764" d="M94.31,514.28l2.7-6.52a14.886,14.886,0,0,0,8.53,3.05c4.31,0,6.44-1.5,6.44-4.49a6.327,6.327,0,0,0-1.53-4.02c-1-1.27-3.1-2.71-6.26-4.29a30.605,30.605,0,0,1-6.4-3.9,10.372,10.372,0,0,1-2.51-3.64,11.91,11.91,0,0,1-.89-4.66,10.223,10.223,0,0,1,3.5-7.91,12.845,12.845,0,0,1,8.96-3.13q7.125,0,10.44,2.67l-2.19,6.31a13.508,13.508,0,0,0-8.1-2.8,5.479,5.479,0,0,0-3.91,1.33,4.611,4.611,0,0,0-1.38,3.47q0,3.54,7.82,7.36a26.016,26.016,0,0,1,5.97,3.72,11.787,11.787,0,0,1,2.79,3.95,13.168,13.168,0,0,1,.93,5.05,10.193,10.193,0,0,1-3.93,8.21q-3.975,3.225-10.57,3.22A18.74,18.74,0,0,1,94.31,514.28Z" fill="#fff"/>
      <path id="Path_3765" data-name="Path 3765" d="M125.61,475.44h7.32v27.9a7.056,7.056,0,0,0,7.58,7.47,8.736,8.736,0,0,0,6.16-2.03,7.219,7.219,0,0,0,2.18-5.57V475.44h7.32v28.29a12.327,12.327,0,0,1-4.25,9.93c-2.84,2.39-6.61,3.6-11.36,3.6-4.78,0-8.48-1.17-11.06-3.51s-3.89-5.69-3.89-10.04V475.44Z" fill="#fff"/>
      <path id="Path_3766" data-name="Path 3766" d="M164.57,516.56V475.44h7.31V510.1h18.56v6.46Z" fill="#fff"/>
      <path id="Path_3767" data-name="Path 3767" d="M208.88,481.89v34.67h-7.32V481.89H188.49v-6.45h34.05v6.45Z" fill="#fff"/>
      <path id="Path_3768" data-name="Path 3768" d="M245.83,516.56l-3.01-8.37H228.74l-2.87,8.37h-8.1l16.38-41.72h3.23l16.55,41.72Zm-10.08-29.18-4.93,15.24h9.87Z" fill="#fff"/>
      <path id="Path_3769" data-name="Path 3769" d="M285.27,517.08l-20.02-25.96v25.44H258.2V475.44h3.46l19.51,24.74V475.44h7.06v41.64Z" fill="#fff"/>
      <path id="Path_3770" data-name="Path 3770" d="M342.08,477.63l-3,6.03c-1.64-1.64-4.25-2.45-7.85-2.45a10.186,10.186,0,0,0-8.43,4.31,17.534,17.534,0,0,0-3.28,10.93c0,4.4.99,7.91,3.06,10.5a9.8,9.8,0,0,0,8.11,3.88,11.051,11.051,0,0,0,9.13-4.16l3.39,5.91c-2.97,3.13-7.32,4.7-13.09,4.7s-10.2-1.88-13.39-5.67-4.77-8.93-4.77-15.46a22.579,22.579,0,0,1,5.27-15.25,17.1,17.1,0,0,1,13.55-6.12C335.47,474.75,339.24,475.71,342.08,477.63Z" fill="#fff"/>
      <path id="Path_3771" data-name="Path 3771" d="M356.33,481.89v9.68h13.22v6.17H356.33V510.1h18.63v6.46H349V475.44h25.96v6.45Z" fill="#fff"/>
      <path id="Path_3772" data-name="Path 3772" d="M408.81,517.08l-20.04-25.96v25.44h-7.06V475.44h3.49l19.51,24.74V475.44h7.07v41.64Z" fill="#fff"/>
      <path id="Path_3773" data-name="Path 3773" d="M436.9,481.89v34.67h-7.31V481.89H416.5v-6.45h34.08v6.45Z" fill="#fff"/>
      <path id="Path_3774" data-name="Path 3774" d="M478.41,516.56l-10.94-16.99c-1.11-.02-2.66-.08-4.65-.19v17.18h-7.58V475.42c.41,0,1.99-.07,4.74-.2s4.98-.21,6.67-.21q15.69,0,15.68,12.13a11.134,11.134,0,0,1-2.15,6.64,11.8,11.8,0,0,1-5.47,4.24l12.15,18.54Zm-15.58-34.77v11.44c1.35.11,2.38.16,3.11.16,3.04,0,5.27-.42,6.7-1.29,1.41-.86,2.11-2.54,2.11-5.02a4.4,4.4,0,0,0-2.27-4.24q-2.31-1.215-7.17-1.21A21.182,21.182,0,0,0,462.83,481.79Z" fill="#fff"/>
      <path id="Path_3775" data-name="Path 3775" d="M514.39,516.56l-3.02-8.37H497.3l-2.85,8.37h-8.1l16.36-41.72h3.24l16.56,41.72Zm-10.05-29.18-4.94,15.24h9.84Z" fill="#fff"/>
      <path id="Path_3776" data-name="Path 3776" d="M526.76,516.56V475.44h7.31V510.1h18.58v6.46Z" fill="#fff"/>
      <path id="Path_3777" data-name="Path 3777" d="M573.71,516.56V475.44H581V510.1h18.56v6.46Z" fill="#fff"/>
      <path id="Path_3778" data-name="Path 3778" d="M629.5,516.56l-3-8.37H612.44l-2.88,8.37h-8.1l16.36-41.72h3.24l16.55,41.72Zm-10.05-29.18-4.96,15.24h9.9Z" fill="#fff"/>
      <path id="Path_3779" data-name="Path 3779" d="M654.47,516.56h-12.6V475.49q8.325-.39,11.64-.4c4.25,0,7.62.93,10,2.75a9.188,9.188,0,0,1,3.62,7.81c0,3.24-1.72,5.82-5.12,7.71,5.09,1.77,7.64,5.45,7.64,11a10.606,10.606,0,0,1-4.24,8.9Q661.15,516.56,654.47,516.56Zm-5.29-35.22v9.84c1.14.08,2.29.11,3.53.11q7.125,0,7.12-5.36c0-3.17-2.17-4.74-6.47-4.74C652.21,481.21,650.81,481.25,649.18,481.34Zm0,15.53v13.57c1.46.13,2.69.19,3.6.19,3.27,0,5.62-.54,7.12-1.65,1.46-1.09,2.2-2.94,2.2-5.49,0-2.33-.69-4.04-2.08-5.1-1.35-1.07-3.73-1.62-7.14-1.62C652.15,496.77,650.94,496.82,649.18,496.87Z" fill="#fff"/>
      <path id="Path_3780" data-name="Path 3780" d="M674.17,514.28l2.69-6.52a14.914,14.914,0,0,0,8.54,3.05q6.45,0,6.45-4.49a6.427,6.427,0,0,0-1.52-4.02c-1.04-1.27-3.11-2.71-6.27-4.29a29.25,29.25,0,0,1-6.38-3.9,10.5,10.5,0,0,1-2.56-3.64,12.277,12.277,0,0,1-.87-4.66,10.214,10.214,0,0,1,3.49-7.91,12.845,12.845,0,0,1,8.94-3.13c4.78,0,8.23.89,10.46,2.67l-2.21,6.31a13.43,13.43,0,0,0-8.08-2.8,5.446,5.446,0,0,0-3.91,1.33,4.648,4.648,0,0,0-1.38,3.47q0,3.54,7.82,7.36a26.029,26.029,0,0,1,5.95,3.72,11.352,11.352,0,0,1,2.78,3.95,12.985,12.985,0,0,1,.95,5.05,10.2,10.2,0,0,1-3.94,8.21c-2.63,2.15-6.15,3.22-10.59,3.22A18.669,18.669,0,0,1,674.17,514.28Z" fill="#fff"/>
      <path id="Path_3781" data-name="Path 3781" d="M701.96,485.58a10.475,10.475,0,1,1,10.49,10.5A10.439,10.439,0,0,1,701.96,485.58Zm19.1,0a8.64,8.64,0,1,0-8.61,8.65A8.617,8.617,0,0,0,721.06,485.58Zm-10.83.7v5.32h-1.91V479.28h3.96c2.26,0,4.6.62,4.6,3.4a2.835,2.835,0,0,1-2.51,2.88v.05c1.71.33,1.91,1.09,2.09,2.42a17.239,17.239,0,0,0,.71,3.57h-2.43a16.087,16.087,0,0,1-.4-2.2c-.17-1.05-.17-2.03-.7-2.6a2.409,2.409,0,0,0-1.79-.51h-1.62Zm2.02-1.93c1.81-.05,2.24-.8,2.24-1.75,0-.93-.43-1.4-1.95-1.4h-2.31v3.15Z" fill="#fff"/>
    </g>
  </g>
</svg>
