<svg xmlns="http://www.w3.org/2000/svg" xmlns:xlink="http://www.w3.org/1999/xlink" width="153.6" height="238.934" viewBox="0 0 153.6 238.934">
  <defs>
    <linearGradient id="linear-gradient" x1="0.5" x2="0.5" y2="1" gradientUnits="objectBoundingBox">
      <stop offset="0" stop-color="#ef3e42"/>
      <stop offset="0.478" stop-color="#f4787b"/>
      <stop offset="1" stop-color="#ef3e42"/>
    </linearGradient>
  </defs>
  <g id="Group_177" data-name="Group 177" transform="translate(-3728.4 -1020.533)">
    <g id="phone" transform="translate(3549.2 884)">
      <path id="Path_104" data-name="Path 104" d="M324.267,204.8H307.2V187.733a51.2,51.2,0,0,0-102.4,0V204.8H187.733a8.536,8.536,0,0,0-8.533,8.533V332.8a8.536,8.536,0,0,0,8.533,8.533H324.266A8.536,8.536,0,0,0,332.8,332.8V213.333A8.535,8.535,0,0,0,324.267,204.8Zm-102.4-17.067a34.133,34.133,0,1,1,68.266,0V204.8H221.866V187.733Zm93.866,136.534H196.267v-102.4H315.734v102.4Z" fill="url(#linear-gradient)"/>
      <path id="Path_105" data-name="Path 105" d="M256,238.933a25.54,25.54,0,0,0-8.533,49.63V307.2h17.067V288.563A25.54,25.54,0,0,0,256,238.933Zm0,34.134a8.533,8.533,0,1,1,8.533-8.533A8.536,8.536,0,0,1,256,273.067Z" fill="url(#linear-gradient)"/>
      <rect id="Rectangle_2295" data-name="Rectangle 2295" width="17.067" height="17.067" transform="translate(247.467 358.4)" fill="url(#linear-gradient)"/>
      <rect id="Rectangle_2296" data-name="Rectangle 2296" width="17.067" height="17.067" transform="translate(281.6 358.4)" fill="url(#linear-gradient)"/>
      <rect id="Rectangle_2297" data-name="Rectangle 2297" width="17.067" height="17.067" transform="translate(315.733 358.4)" fill="url(#linear-gradient)"/>
      <rect id="Rectangle_2298" data-name="Rectangle 2298" width="17.067" height="17.067" transform="translate(179.2 358.4)" fill="url(#linear-gradient)"/>
      <rect id="Rectangle_2299" data-name="Rectangle 2299" width="17.067" height="17.067" transform="translate(213.333 358.4)" fill="url(#linear-gradient)"/>
    </g>
  </g>
</svg>
