<?xml version="1.0" encoding="iso-8859-1"?>
<!-- Generator: Adobe Illustrator 19.0.0, SVG Export Plug-In . SVG Version: 6.00 Build 0)  -->
<svg version="1.1" id="Capa_1" xmlns="http://www.w3.org/2000/svg" xmlns:xlink="http://www.w3.org/1999/xlink" x="0px" y="0px"
	 viewBox="0 0 512 512" style="enable-background:new 0 0 512 512;" xml:space="preserve">
<g>
	
		<linearGradient id="SVGID_1_" gradientUnits="userSpaceOnUse" x1="-13.2578" y1="635.403" x2="-13.2578" y2="575.0339" gradientTransform="matrix(8.5333 0 0 -8.5333 369.1334 5433.2671)">
		<stop  offset="0" style="stop-color:#EE3C40"/>
		<stop  offset="0.129" style="stop-color:#EE3C40"/>
		<stop  offset="0.343" style="stop-color:#F3777A"/>
		<stop  offset="0.616" style="stop-color:#F7A8AA"/>
		<stop  offset="0.934" style="stop-color:#F3777A"/>
		<stop  offset="1" style="stop-color:#FBD5D5"/>
	</linearGradient>
	<path style="fill:url(#SVGID_1_);" d="M324.267,204.8H307.2v-17.067c0-28.279-22.921-51.2-51.2-51.2
		c-28.279,0-51.2,22.921-51.2,51.2V204.8h-17.067c-4.71,0-8.533,3.823-8.533,8.533V332.8c0,4.71,3.823,8.533,8.533,8.533h136.533
		c4.71,0,8.533-3.823,8.533-8.533V213.333C332.8,208.623,328.977,204.8,324.267,204.8z M221.867,187.733
		c0-18.85,15.283-34.133,34.133-34.133c18.85,0,34.133,15.283,34.133,34.133V204.8h-68.267V187.733z M315.733,324.267H196.267
		v-102.4h119.467V324.267z"/>
	
		<linearGradient id="SVGID_2_" gradientUnits="userSpaceOnUse" x1="-13.2575" y1="635.403" x2="-13.2575" y2="575.0339" gradientTransform="matrix(8.5333 0 0 -8.5333 369.1334 5433.2671)">
		<stop  offset="0" style="stop-color:#EE3C40"/>
		<stop  offset="0.129" style="stop-color:#EE3C40"/>
		<stop  offset="0.343" style="stop-color:#F3777A"/>
		<stop  offset="0.616" style="stop-color:#F7A8AA"/>
		<stop  offset="0.934" style="stop-color:#F3777A"/>
		<stop  offset="1" style="stop-color:#FBD5D5"/>
	</linearGradient>
	<path style="fill:url(#SVGID_2_);" d="M256,238.933c-14.106-0.026-25.566,11.383-25.591,25.489
		c-0.017,10.854,6.818,20.54,17.058,24.141V307.2h17.067v-18.637c13.303-4.685,20.292-19.268,15.607-32.572
		C276.531,245.751,266.854,238.916,256,238.933z M256,273.067c-4.71,0-8.533-3.823-8.533-8.533c0-4.71,3.823-8.533,8.533-8.533
		c4.71,0,8.533,3.823,8.533,8.533C264.533,269.244,260.71,273.067,256,273.067z"/>
	
		<linearGradient id="SVGID_3_" gradientUnits="userSpaceOnUse" x1="-13.2578" y1="635.403" x2="-13.2578" y2="575.0339" gradientTransform="matrix(8.5333 0 0 -8.5333 369.1334 5433.2671)">
		<stop  offset="0" style="stop-color:#EE3C40"/>
		<stop  offset="0.129" style="stop-color:#EE3C40"/>
		<stop  offset="0.343" style="stop-color:#F3777A"/>
		<stop  offset="0.616" style="stop-color:#F7A8AA"/>
		<stop  offset="0.934" style="stop-color:#F3777A"/>
		<stop  offset="1" style="stop-color:#FBD5D5"/>
	</linearGradient>
	<path style="fill:url(#SVGID_3_);" d="M110.933,68.267v375.467c0,18.85,15.283,34.133,34.133,34.133h221.867
		c18.85,0,34.133-15.283,34.133-34.133V68.267c0-18.85-15.283-34.133-34.133-34.133H145.067
		C126.217,34.133,110.933,49.417,110.933,68.267z M128,119.467h256v273.067H128V119.467z M366.933,460.8H145.067
		c-9.429,0-17.067-7.637-17.067-17.067V409.6h256v34.133C384,453.163,376.363,460.8,366.933,460.8z M384,68.267V102.4H128V68.267
		c0-9.429,7.637-17.067,17.067-17.067h221.867C376.363,51.2,384,58.837,384,68.267z"/>
	
		<linearGradient id="SVGID_4_" gradientUnits="userSpaceOnUse" x1="-13.2578" y1="635.403" x2="-13.2578" y2="575.0339" gradientTransform="matrix(8.5333 0 0 -8.5333 369.1334 5433.2671)">
		<stop  offset="0" style="stop-color:#EE3C40"/>
		<stop  offset="0.129" style="stop-color:#EE3C40"/>
		<stop  offset="0.343" style="stop-color:#F3777A"/>
		<stop  offset="0.616" style="stop-color:#F7A8AA"/>
		<stop  offset="0.934" style="stop-color:#F3777A"/>
		<stop  offset="1" style="stop-color:#FBD5D5"/>
	</linearGradient>
	<rect x="247.467" y="426.667" style="fill:url(#SVGID_4_);" width="17.067" height="17.067"/>
	
		<linearGradient id="SVGID_5_" gradientUnits="userSpaceOnUse" x1="-15.2578" y1="635.403" x2="-15.2578" y2="575.0339" gradientTransform="matrix(8.5333 0 0 -8.5333 369.1334 5433.2671)">
		<stop  offset="0" style="stop-color:#EE3C40"/>
		<stop  offset="0.129" style="stop-color:#EE3C40"/>
		<stop  offset="0.343" style="stop-color:#F3777A"/>
		<stop  offset="0.616" style="stop-color:#F7A8AA"/>
		<stop  offset="0.934" style="stop-color:#F3777A"/>
		<stop  offset="1" style="stop-color:#FBD5D5"/>
	</linearGradient>
	<rect x="230.4" y="68.267" style="fill:url(#SVGID_5_);" width="17.067" height="17.067"/>
	
		<linearGradient id="SVGID_6_" gradientUnits="userSpaceOnUse" x1="-11.2578" y1="635.403" x2="-11.2578" y2="575.0339" gradientTransform="matrix(8.5333 0 0 -8.5333 369.1334 5433.2671)">
		<stop  offset="0" style="stop-color:#EE3C40"/>
		<stop  offset="0.129" style="stop-color:#EE3C40"/>
		<stop  offset="0.343" style="stop-color:#F3777A"/>
		<stop  offset="0.616" style="stop-color:#F7A8AA"/>
		<stop  offset="0.934" style="stop-color:#F3777A"/>
		<stop  offset="1" style="stop-color:#FBD5D5"/>
	</linearGradient>
	<rect x="264.533" y="68.267" style="fill:url(#SVGID_6_);" width="17.067" height="17.067"/>
	
		<linearGradient id="SVGID_7_" gradientUnits="userSpaceOnUse" x1="-13.2578" y1="635.403" x2="-13.2578" y2="575.0339" gradientTransform="matrix(8.5333 0 0 -8.5333 369.1334 5433.2671)">
		<stop  offset="0" style="stop-color:#EE3C40"/>
		<stop  offset="0.129" style="stop-color:#EE3C40"/>
		<stop  offset="0.343" style="stop-color:#F3777A"/>
		<stop  offset="0.616" style="stop-color:#F7A8AA"/>
		<stop  offset="0.934" style="stop-color:#F3777A"/>
		<stop  offset="1" style="stop-color:#FBD5D5"/>
	</linearGradient>
	<rect x="247.467" y="358.4" style="fill:url(#SVGID_7_);" width="17.067" height="17.067"/>
	
		<linearGradient id="SVGID_8_" gradientUnits="userSpaceOnUse" x1="-9.2578" y1="635.403" x2="-9.2578" y2="575.0339" gradientTransform="matrix(8.5333 0 0 -8.5333 369.1334 5433.2671)">
		<stop  offset="0" style="stop-color:#EE3C40"/>
		<stop  offset="0.129" style="stop-color:#EE3C40"/>
		<stop  offset="0.343" style="stop-color:#F3777A"/>
		<stop  offset="0.616" style="stop-color:#F7A8AA"/>
		<stop  offset="0.934" style="stop-color:#F3777A"/>
		<stop  offset="1" style="stop-color:#FBD5D5"/>
	</linearGradient>
	<rect x="281.6" y="358.4" style="fill:url(#SVGID_8_);" width="17.067" height="17.067"/>
	
		<linearGradient id="SVGID_9_" gradientUnits="userSpaceOnUse" x1="-5.2578" y1="635.403" x2="-5.2578" y2="575.0339" gradientTransform="matrix(8.5333 0 0 -8.5333 369.1334 5433.2671)">
		<stop  offset="0" style="stop-color:#EE3C40"/>
		<stop  offset="0.129" style="stop-color:#EE3C40"/>
		<stop  offset="0.343" style="stop-color:#F3777A"/>
		<stop  offset="0.616" style="stop-color:#F7A8AA"/>
		<stop  offset="0.934" style="stop-color:#F3777A"/>
		<stop  offset="1" style="stop-color:#FBD5D5"/>
	</linearGradient>
	<rect x="315.733" y="358.4" style="fill:url(#SVGID_9_);" width="17.067" height="17.067"/>
	
		<linearGradient id="SVGID_10_" gradientUnits="userSpaceOnUse" x1="-21.2578" y1="635.403" x2="-21.2578" y2="575.0339" gradientTransform="matrix(8.5333 0 0 -8.5333 369.1334 5433.2671)">
		<stop  offset="0" style="stop-color:#EE3C40"/>
		<stop  offset="0.129" style="stop-color:#EE3C40"/>
		<stop  offset="0.343" style="stop-color:#F3777A"/>
		<stop  offset="0.616" style="stop-color:#F7A8AA"/>
		<stop  offset="0.934" style="stop-color:#F3777A"/>
		<stop  offset="1" style="stop-color:#FBD5D5"/>
	</linearGradient>
	<rect x="179.2" y="358.4" style="fill:url(#SVGID_10_);" width="17.067" height="17.067"/>
	
		<linearGradient id="SVGID_11_" gradientUnits="userSpaceOnUse" x1="-17.2578" y1="635.403" x2="-17.2578" y2="575.0339" gradientTransform="matrix(8.5333 0 0 -8.5333 369.1334 5433.2671)">
		<stop  offset="0" style="stop-color:#EE3C40"/>
		<stop  offset="0.129" style="stop-color:#EE3C40"/>
		<stop  offset="0.343" style="stop-color:#F3777A"/>
		<stop  offset="0.616" style="stop-color:#F7A8AA"/>
		<stop  offset="0.934" style="stop-color:#F3777A"/>
		<stop  offset="1" style="stop-color:#FBD5D5"/>
	</linearGradient>
	<rect x="213.333" y="358.4" style="fill:url(#SVGID_11_);" width="17.067" height="17.067"/>
	
		<linearGradient id="SVGID_12_" gradientUnits="userSpaceOnUse" x1="-28.2578" y1="635.403" x2="-28.2578" y2="575.0339" gradientTransform="matrix(8.5333 0 0 -8.5333 369.1334 5433.2671)">
		<stop  offset="0" style="stop-color:#EE3C40"/>
		<stop  offset="0.129" style="stop-color:#EE3C40"/>
		<stop  offset="0.343" style="stop-color:#F3777A"/>
		<stop  offset="0.616" style="stop-color:#F7A8AA"/>
		<stop  offset="0.934" style="stop-color:#F3777A"/>
		<stop  offset="1" style="stop-color:#FBD5D5"/>
	</linearGradient>
	<path style="fill:url(#SVGID_12_);" d="M76.8,59.733v110.933h17.067V59.733c0.026-23.552,19.115-42.641,42.667-42.667H179.2V0
		h-42.667C103.561,0.034,76.834,26.761,76.8,59.733z"/>
	
		<linearGradient id="SVGID_13_" gradientUnits="userSpaceOnUse" x1="-33.2578" y1="635.403" x2="-33.2578" y2="575.0339" gradientTransform="matrix(8.5333 0 0 -8.5333 369.1334 5433.2671)">
		<stop  offset="0" style="stop-color:#EE3C40"/>
		<stop  offset="0.129" style="stop-color:#EE3C40"/>
		<stop  offset="0.343" style="stop-color:#F3777A"/>
		<stop  offset="0.616" style="stop-color:#F7A8AA"/>
		<stop  offset="0.934" style="stop-color:#F3777A"/>
		<stop  offset="1" style="stop-color:#FBD5D5"/>
	</linearGradient>
	<rect x="76.8" y="187.733" style="fill:url(#SVGID_13_);" width="17.067" height="17.067"/>
	
		<linearGradient id="SVGID_14_" gradientUnits="userSpaceOnUse" x1="3.2422" y1="635.403" x2="3.2422" y2="575.0339" gradientTransform="matrix(8.5333 0 0 -8.5333 369.1334 5433.2671)">
		<stop  offset="0" style="stop-color:#EE3C40"/>
		<stop  offset="0.129" style="stop-color:#EE3C40"/>
		<stop  offset="0.343" style="stop-color:#F3777A"/>
		<stop  offset="0.616" style="stop-color:#F7A8AA"/>
		<stop  offset="0.934" style="stop-color:#F3777A"/>
		<stop  offset="1" style="stop-color:#FBD5D5"/>
	</linearGradient>
	<path style="fill:url(#SVGID_14_);" d="M418.133,452.267c-0.026,23.552-19.115,42.641-42.667,42.667H358.4V512h17.067
		c32.973-0.034,59.699-26.761,59.733-59.733v-153.6h-17.067V452.267z"/>
	
		<linearGradient id="SVGID_15_" gradientUnits="userSpaceOnUse" x1="6.7422" y1="635.403" x2="6.7422" y2="575.0339" gradientTransform="matrix(8.5333 0 0 -8.5333 369.1334 5433.2671)">
		<stop  offset="0" style="stop-color:#EE3C40"/>
		<stop  offset="0.129" style="stop-color:#EE3C40"/>
		<stop  offset="0.343" style="stop-color:#F3777A"/>
		<stop  offset="0.616" style="stop-color:#F7A8AA"/>
		<stop  offset="0.934" style="stop-color:#F3777A"/>
		<stop  offset="1" style="stop-color:#FBD5D5"/>
	</linearGradient>
	<rect x="418.133" y="264.533" style="fill:url(#SVGID_15_);" width="17.067" height="17.067"/>
</g>
<g>
</g>
<g>
</g>
<g>
</g>
<g>
</g>
<g>
</g>
<g>
</g>
<g>
</g>
<g>
</g>
<g>
</g>
<g>
</g>
<g>
</g>
<g>
</g>
<g>
</g>
<g>
</g>
<g>
</g>
</svg>
