<svg width="24" height="24" viewBox="0 0 24 24" fill="none" xmlns="http://www.w3.org/2000/svg">
<path fill-rule="evenodd" clip-rule="evenodd" d="M12 9C10.3431 9 8.99996 10.3431 8.99996 12C8.99996 13.6569 10.3431 15 12 15C13.6568 15 15 13.6569 15 12C15 10.3431 13.6568 9 12 9ZM9.99996 12C9.99996 10.8954 10.8954 10 12 10C13.1045 10 14 10.8954 14 12C14 13.1046 13.1045 14 12 14C10.8954 14 9.99996 13.1046 9.99996 12Z" fill="#060F33"/>
<path fill-rule="evenodd" clip-rule="evenodd" d="M12 5.3C6.47622 5.3 3.73036 9.97123 3.05299 11.3086C2.83178 11.7453 2.83178 12.2547 3.05299 12.6914C3.73036 14.0288 6.47622 18.7 12 18.7C17.5237 18.7 20.2696 14.0288 20.9469 12.6914C21.1681 12.2547 21.1681 11.7453 20.9469 11.3086C20.2696 9.97123 17.5237 5.3 12 5.3ZM4.30192 11.9412C4.95491 10.652 7.35127 6.7 12 6.7C16.6487 6.7 19.045 10.652 19.698 11.9412C19.7178 11.9802 19.7178 12.0198 19.698 12.0588C19.045 13.348 16.6487 17.3 12 17.3C7.35127 17.3 4.95491 13.348 4.30192 12.0588C4.28214 12.0198 4.28214 11.9802 4.30192 11.9412Z" fill="#060F33"/>
</svg>
